<svg width="101" height="58" viewBox="0 0 101 58" fill="none" xmlns="http://www.w3.org/2000/svg">
<path d="M63.4545 3H72.0909C74.3814 3 76.5781 3.9099 78.1977 5.52953C79.8174 7.14916 80.7273 9.34586 80.7273 11.6364V46.1818C80.7273 48.4723 79.8174 50.669 78.1977 52.2886C76.5781 53.9083 74.3814 54.8182 72.0909 54.8182H58.3159M20.2727 54.8182H11.6364C9.34586 54.8182 7.14916 53.9083 5.52953 52.2886C3.9099 50.669 3 48.4723 3 46.1818V11.6364C3 9.34586 3.9099 7.14916 5.52953 5.52953C7.14916 3.9099 9.34586 3 11.6364 3H25.4114L20.2727 54.8182Z" stroke="white" stroke-width="6" stroke-linecap="round" stroke-linejoin="round"/>
<path d="M98 33.2272V24.5908" stroke="white" stroke-width="6" stroke-linecap="round" stroke-linejoin="round"/>
<path d="M46.1819 3L28.9092 28.9091H54.8183L37.5455 54.8182" stroke="white" stroke-width="6" stroke-linecap="round" stroke-linejoin="round"/>
</svg>
