<svg width="95" height="83" viewBox="0 0 95 83" fill="none" xmlns="http://www.w3.org/2000/svg">
<rect width="95" height="83" rx="5" fill="url(#paint0_linear_146_691)"/>
<rect x="0.5" y="0.5" width="94" height="82" rx="4.5" stroke="url(#paint1_linear_146_691)" stroke-opacity="0.4"/>
<path d="M64.8977 50.1087C65.0589 49.1522 65.1395 48.3551 65.1395 47.7174C65.2202 43.0145 64.2326 39.4076 62.1767 36.8967C60.1209 34.3859 57.2388 32.0543 53.5302 29.9022C54.3364 34.2862 53.5907 37.7337 51.293 40.2446C48.9953 42.7554 46.0729 43.5326 42.5256 42.5761C44.4605 39.4674 45.6295 36.7174 46.0326 34.3261C46.4357 31.9348 46.2946 30.0815 45.6093 28.7663C44.924 27.4511 44.2186 26.0163 43.493 24.462C42.7674 22.9076 42.1829 21.413 41.7395 19.9783C41.2961 18.5435 41.5178 16.5507 42.4047 14C38.8574 16.471 35.6326 20.6359 32.7302 26.4946C29.8279 32.3533 28.3767 37.7536 28.3767 42.6957C28.538 45.6449 28.8202 48.1159 29.2233 50.1087C23.7411 52.3406 21 55.0109 21 58.1196C21 61.0688 23.5395 63.6196 28.6186 65.7717C33.6977 67.9239 39.8248 69 47 69C54.1752 69 60.3023 67.9239 65.3814 65.7717C70.4605 63.6196 73 61.0688 73 58.1196C73 55.0109 70.2992 52.3406 64.8977 50.1087ZM37.0837 36.9565C36.1969 41.1014 36.6806 44.6685 38.5349 47.6576C40.3891 50.6467 42.6465 52.1413 45.307 52.1413C50.386 52.1413 53.9333 48.1558 55.9488 40.1848C58.8512 42.337 60.4233 45.2065 60.6651 48.7935C60.907 52.6993 59.4155 56.0072 56.1907 58.7174V58.837C55.2233 59.4746 54.4574 59.9529 53.893 60.2717C53.8124 60.3514 53.7318 60.3913 53.6512 60.3913L52.6837 60.8696L52.4419 60.9891C51.6357 61.308 50.7085 61.587 49.6605 61.8261C49.4186 61.8261 49.2574 61.8659 49.1767 61.9457C49.0155 61.9457 48.814 61.9656 48.5721 62.0054C48.3302 62.0453 48.169 62.0652 48.0884 62.0652C47.8465 62.0652 47.6853 62.1051 47.6047 62.1848H44.4605C44.3798 62.1848 44.2186 62.1649 43.9767 62.125C43.7349 62.0851 43.5736 62.0652 43.493 62.0652H43.3721C42.7271 61.9058 42.324 61.8261 42.1628 61.8261L42.0419 61.7065L40.9535 61.3478H40.8326C38.414 60.3913 36.4992 58.817 35.0884 56.625C33.6775 54.433 33.0124 51.8225 33.093 48.7935L32.9721 48.913C33.1333 45.087 34.5039 41.1014 37.0837 36.9565Z" fill="url(#paint2_linear_146_691)"/>
<defs>
<linearGradient id="paint0_linear_146_691" x1="23.5" y1="3.88827e-06" x2="88.5" y2="83" gradientUnits="userSpaceOnUse">
<stop stop-color="#7AE6B2"/>
<stop offset="1" stop-color="#07FBFC"/>
</linearGradient>
<linearGradient id="paint1_linear_146_691" x1="3.16667" y1="-1.50722e-06" x2="115.258" y2="75.3351" gradientUnits="userSpaceOnUse">
<stop stop-color="#44ED98"/>
<stop offset="1" stop-color="#07FBFC"/>
</linearGradient>
<linearGradient id="paint2_linear_146_691" x1="33.1535" y1="22.9076" x2="46.7139" y2="69.084" gradientUnits="userSpaceOnUse">
<stop stop-color="#FFAB39"/>
<stop offset="1" stop-color="#FFE000"/>
</linearGradient>
</defs>
</svg>
