<svg width="409" height="410" viewBox="0 0 409 410" fill="none" xmlns="http://www.w3.org/2000/svg">
<path fill-rule="evenodd" clip-rule="evenodd" d="M204.107 409.012C316.5 409.012 408.191 317.321 408.191 204.928C408.191 92.5353 316.487 0.857544 204.107 0.857544C91.7275 0.857544 0.0236816 92.5484 0.0236816 204.928C0.0236816 317.308 91.7145 409.012 204.107 409.012Z" fill="#7A85FD"/>
<path fill-rule="evenodd" clip-rule="evenodd" d="M171.722 408.808C75.9092 392.033 3.06787 308.43 3.06787 207.79C3.06787 107.151 71.6957 28.4784 163.387 8.44177C259.252 25.2172 332.093 108.82 332.093 209.46C332.093 310.099 263.413 388.772 171.722 408.821V408.808Z" fill="#8E93CD"/>
<path d="M95.6804 154.797C96.6326 160.276 100.598 151.536 95.6804 154.797V154.797ZM393.359 128.369C401.447 148.471 406.469 170.125 407.826 192.731C406.874 192.731 405.869 192.575 405.517 192.731C404.565 193.188 403.651 194.597 403.156 195.288C402.96 195.588 402.608 198.001 402.556 198.106C402.451 198.406 401.303 197.91 401.147 198.562C400.599 201.68 403.404 201.928 403.456 204.145C403.508 206.663 400.586 208.372 398.029 208.111C398.434 206.35 399.49 200.623 395.864 202.136C395.707 200.232 397.52 199.828 395.212 198.771C394.103 198.314 391.442 199.671 390.437 200.284C391.846 196.723 392.798 197.114 389.433 198.419C389.276 198.471 386.224 199.828 386.315 199.671C384.658 202.332 388.428 200.323 388.024 203.193C389.328 203.193 389.081 201.641 390.085 201.993C392.394 202.841 392.394 202.802 391.598 203.897C390.75 205.202 388.233 204.406 388.18 206.806C388.128 208.059 390.594 210.276 390.946 212.037C391.194 213.498 390.398 213.342 390.542 214.151C390.737 215.664 391.898 214.307 391.546 216.459C390.998 219.473 386.928 223.086 384.711 224.743C383.106 225.943 382.506 226.347 380.589 226.947C379.284 227.352 376.819 227.456 375.71 228.461C375.762 228.408 375.201 235.192 372.54 232.883C371.483 231.93 374.249 229.922 373.844 228.056C367.466 228.056 368.17 232.478 370.935 236.092C372.801 238.453 374.197 241.009 371.94 244.036C370.74 245.693 368.418 246.24 366.866 248.406C366.109 247.101 366.813 246.345 366.318 245.497C366.122 245.249 364.961 244.949 364.661 244.492C363.2 242.731 363.357 242.784 361.791 241.936C359.926 240.931 361.491 239.77 359.626 241.336C358.465 242.288 359.117 245.353 359.274 246.11C359.73 249.175 361.83 249.071 363.591 251.236C364.844 252.75 364.844 256.467 366.057 258.515C362.496 260.224 360.826 253.598 360.03 251.732C359.378 250.18 357.513 249.071 357.069 247.858C356.26 245.849 358.073 244.597 358.073 243.436C358.126 241.179 356.717 235.805 354.656 235.244C354.46 235.192 352.999 237.357 351.695 236.353C349.79 234.839 352.803 232.635 350.142 232.635C350.142 231.63 348.186 227.156 347.325 226.608C347.272 226.556 342.759 227.508 341.742 228.069C339.08 229.53 335.715 233.744 332.845 236.457C331.384 237.918 331.541 235.948 330.732 237.97C330.536 238.57 330.784 239.927 330.732 240.631C330.575 242.04 330.575 243.449 329.975 244.649C329.075 246.514 327.458 248.067 325.905 247.206C324.392 246.306 323.296 241.231 322.696 239.718C321.796 237.409 320.883 235.452 320.492 232.987C320.244 231.735 320.948 230.274 320.087 229.165C318.379 226.752 319.24 229.413 317.622 228.917C316.67 228.617 311.843 226.399 316.07 226.399C313.656 225.943 313.513 224.795 311.895 223.882C308.986 222.225 307.93 222.525 304.264 222.421C302.66 222.369 299.294 222.069 297.938 221.416C297.233 221.064 297.09 219.864 296.529 219.708C295.824 219.551 294.624 219.903 294.116 219.708C291.05 218.755 290.202 217.894 287.58 216.146C285.519 214.685 283.81 213.537 284.41 217.046C284.567 218.051 286.615 220.308 287.28 220.816C287.476 220.921 291.807 222.121 291.898 222.473C286.276 223.477 291.05 223.373 294.103 223.634C294.207 222.03 294.455 221.925 295.303 220.869C296.059 221.469 296.307 223.477 296.503 224.391C298.512 222.434 297.103 223.686 298.512 224.847C299.268 225.499 301.029 226.66 301.173 227.717C299.62 228.369 299.568 228.474 299.568 230.587C298.564 230.182 297.051 232.296 296.307 233.144C294.703 234.957 293.346 234.5 291.037 235.557C289.224 236.405 288.128 237.318 285.91 238.218C283.954 239.066 281.593 240.931 279.636 240.931C275.214 240.879 277.327 238.766 275.723 235.257C274.562 232.7 271.809 230.939 270.453 228.669C268.339 225.108 267.544 220.477 264.269 217.06C262.104 219.264 260.8 213.537 258.843 212.637C260.095 211.985 261.308 213.342 262.613 212.794C263.722 212.285 265.274 210.276 265.678 209.024C266.931 205.463 266.63 204.302 263.317 203.597C263.265 204.106 263.265 204.498 263.317 204.954C261.504 205.358 261.008 204.002 259.899 204.054C260.004 204.054 257.134 204.602 258.243 204.758C257.186 204.602 256.077 204.863 254.773 203.702C254.773 203.897 254.877 205.658 254.264 205.658C253.755 205.658 251.851 192.392 248.381 197.519C248.629 197.519 248.838 197.623 248.89 197.871C247.885 198.327 247.377 198.027 246.477 197.519C246.176 198.119 248.081 200.936 248.994 200.936C249.098 200.636 249.098 200.336 248.994 200.036C249.542 200.036 249.894 200.441 250.194 200.936C248.433 201.184 245.316 206.259 244.363 201.536C243.515 202.593 242.811 201.941 242.302 200.636C242.902 200.532 243.059 200.688 243.711 200.832C243.111 199.723 242.354 196.958 241.807 195.953C240.906 194.297 238.793 193.488 237.189 192.288C234.828 190.579 231.71 186.313 231.358 191.127C232.467 191.022 234.828 192.836 234.619 194.297C236.876 194.597 239.537 196.71 240.502 198.562C239.993 198.562 238.389 198.21 237.737 198.014C237.684 198.314 237.632 198.562 237.632 198.823H238.989C237.932 201.38 234.019 205.906 231.553 201.589C240.75 201.589 234.215 197.623 230.549 194.753C229.297 193.749 227.836 190.931 226.323 190.683C225.214 190.527 223.205 192.94 222.8 192.992C221.744 193.188 219.983 191.831 218.978 192.444C217.817 193.149 218.926 194.31 218.274 194.805C217.765 195.262 214.661 196.162 213.956 197.01C213.408 197.662 213.2 199.214 212.952 199.567C212.9 199.619 213.852 200.375 213.552 200.819C213.004 201.576 212.652 200.715 211.947 201.367C210.238 202.971 207.473 203.884 205.321 204.68C205.673 204.628 205.725 204.785 205.477 205.137C204.173 203.532 203.52 204.38 202.164 203.532C200.051 202.176 200.859 203.637 200.259 201.223C199.555 198.562 200.768 195.301 199.959 192.536C204.225 190.722 214.778 196.058 210.46 187.409C209.651 185.805 208.804 185.4 208.047 184.344C207.499 183.587 205.49 183.991 207.095 182.739C208.399 181.735 212.821 184.396 210.617 180.574C211.569 180.469 212.43 181.774 213.878 181.33C214.334 181.226 215.482 178.46 215.639 178.369C217.1 177.26 220.909 177.521 218.952 175.004C220.465 175.004 222.827 174.247 224.183 173.451C226.844 171.899 225.84 173.803 225.996 170.334C226.049 169.029 225.096 167.516 226.453 166.159C228.357 164.15 229.01 164.607 228.657 167.112C228.958 167.216 229.258 167.216 229.558 167.112C229.401 167.516 229.101 168.312 229.101 168.716C229.453 168.873 231.306 168.207 231.866 167.959C232.271 172.682 228.449 168.912 228.201 171.521C228.71 171.977 229.714 172.329 230.666 172.369C230.914 169.955 234.736 172.173 235.584 172.121C238.193 171.873 239.498 169.303 241.859 171.664C240.554 169.551 242.563 170.412 244.168 170.412C244.22 169.407 244.063 165.442 245.929 164.737C247.442 164.19 247.285 168.103 249.894 164.737C248.994 164.137 248.89 163.576 247.833 163.029C247.285 162.781 245.668 165.337 244.82 163.133C245.524 162.937 246.02 162.676 246.724 162.676C246.424 162.52 246.176 162.376 245.824 162.22C245.876 162.168 249.19 161.059 250.142 160.915C252.555 160.615 255.412 161.515 257.473 159.454C253.808 157.393 248.381 161.763 245.316 158.15C240.893 153.023 250.494 151.367 250.038 148.406C249.842 147.049 247.168 145.849 246.02 146.54C244.507 147.492 244.507 149.906 243.855 150.767C242.85 152.019 240.946 152.123 239.889 153.323C237.776 155.789 239.485 157.641 239.485 159.702C242.302 159.702 240.437 160.759 239.941 162.063C239.785 162.415 237.828 164.933 237.332 165.677C237.841 166.029 238.089 166.029 238.885 165.977C238.989 166.225 238.989 166.433 238.885 166.733C237.476 167.085 236.576 167.633 234.919 168.246C233.967 168.599 234.919 170.203 232.714 169.303C231.814 169.003 233.014 168.246 232.61 167.79C231.306 166.277 230.197 161.007 228.697 160.759C226.44 163.629 225.227 163.224 221.809 163.224C221.705 162.415 222.161 162.272 222.213 161.411C219.096 161.163 223.727 158.998 220.309 159.102C221.157 156.089 221.666 153.676 225.84 152.828C225.54 152.019 225.683 152.28 225.683 151.667C226.74 151.915 230.21 150.414 230.406 148.901H229.153C229.805 148.249 230.966 147.545 231.71 147.44C232.114 144.675 235.48 140.853 237.737 140.357C236.028 139.509 233.667 140.957 232.114 141.466C232.871 140.461 233.719 139.809 235.128 139.809C235.128 139.3 235.18 139.561 234.932 139.053C235.884 138.596 236.289 137.892 236.889 137.644C237.397 139.248 237.045 138.805 238.598 139.405C239.25 137.448 237.489 138.752 239.354 136.887C239.654 139.092 241.063 136.731 240.659 135.23C241.715 135.126 243.32 136.131 243.32 137.187C243.92 136.731 243.776 136.483 243.776 135.583C244.781 135.935 245.981 135.583 246.894 135.987C245.237 135.035 244.937 133.274 248.146 133.626C246.633 135.23 250.807 133.026 251.407 132.922V133.926C251.16 133.926 250.599 133.822 250.351 133.926C250.351 136.091 251.107 135.387 251.355 133.678C252.112 134.383 252.464 134.187 252.868 135.139C252.712 134.487 252.868 134.03 252.868 133.274C253.325 133.117 254.473 133.117 254.982 133.274C254.877 133.626 254.682 134.435 254.473 134.787C256.025 134.787 255.125 133.274 257.382 134.487C258.23 134.943 259.143 135.739 257.382 135.739C258.438 136.691 262.965 135.935 261.856 138.257C262.808 138.857 266.083 138.257 268.287 139.105C269.644 139.613 273.309 140.97 273.662 142.47C275.266 148.706 261.856 143.422 260.604 143.175C262.013 145.04 263.917 146.945 264.83 148.445C265.887 150.206 264.674 149.906 267.035 151.054C267.231 151.158 269.592 151.51 269.592 150.754C269.592 149.749 264.869 149.553 268.039 147.845C269.344 149.501 271.209 148.693 272.761 149.553C272.814 148.901 272.005 147.597 271.705 147.14C272.761 147.036 274.314 145.327 274.875 145.183C275.579 145.079 278.136 145.64 277.888 145.784C278.84 145.184 278.136 140.305 277.184 139.353C279.388 139.353 283.915 141.961 280.053 141.818C279.701 146.54 284.776 141.87 285.18 141.622C287.541 140.018 290.254 139.966 292.563 138.609C290.959 143.436 299.803 136.091 299.803 140.37C305.23 138.205 297.142 134.996 299.96 134.539C300.56 134.435 304.63 136.548 305.738 136.9C307.904 137.657 309.613 138.452 311.869 139.066C311.921 139.066 313.93 141.831 314.478 139.822C314.726 138.661 313.122 138.713 312.769 137.957C312.221 136.848 311.465 137.057 311.113 136.248C311.517 137.096 311.517 132.374 311.008 133.782C311.061 133.535 313.97 128.865 314.217 128.656C316.031 127.299 320.244 127.952 319.696 130.521H318.744C318.548 132.478 319.2 139.47 320.948 139.313C320.948 140.918 320.14 142.027 319.044 143.031C317.844 144.088 315.431 143.879 314.778 144.844C317.739 145.04 317.687 145.601 320.009 144.296C320.857 143.84 321.522 143.488 322.122 142.483C322.422 141.975 322.279 139.874 322.279 139.874C326.597 136.352 325.944 144.296 329.167 142.183C328.866 142.131 326.91 141.831 326.91 141.283C326.91 139.679 327.066 138.374 324.601 137.37C322.592 136.613 323.049 139.026 321.392 136.365C321.288 136.17 320.844 131.487 320.844 131.487C321.144 129.83 322.801 130.939 322.801 128.121C323.049 128.173 323.257 128.121 323.453 127.965C323.91 128.865 323.453 131.33 323.805 131.787C324.966 133.195 327.366 132.295 328.332 133.691C328.58 131.878 321.953 130.574 327.627 130.926C327.627 129.921 326.727 129.973 326.023 129.621C327.927 129.217 329.232 129.269 331.149 129.973C331.606 130.13 332.506 131.487 333.21 131.434C335.728 131.239 331.306 128.617 330.654 127.064C333.119 124.86 337.685 127.169 340.15 125.356C342.407 123.751 338.793 125.003 340.046 123.151C340.346 122.695 343.007 121.742 343.516 121.547C345.068 120.999 346.125 120.842 347.39 120.594C348.642 120.242 351.512 118.533 351.76 118.481C353.117 118.325 354.825 119.433 355.725 119.329C358.282 119.081 358.491 117.02 361.556 117.725C361.4 117.216 361.504 117.372 361.152 116.877C363.917 115.468 364.061 113.968 368.483 114.32C368.287 114.516 367.374 115.624 367.179 115.977C368.287 115.977 369.383 116.329 370.544 116.224C370.544 116.929 370.244 117.033 369.84 117.477C371.849 116.72 380.536 116.368 379.741 120.947C379.545 122.003 371.001 127.182 369.083 127.378C370.896 127.378 374.262 127.534 373.91 125.564C376.166 125.917 377.08 123.255 378.788 123.699C380.302 124.103 377.08 125.656 376.884 125.656C377.536 126.308 378.697 125.603 379.401 125.356V126.556C381.41 126.556 384.724 125.656 386.537 126.151C387.541 126.399 387.998 127.404 388.741 127.756C390.502 128.46 391.703 128.408 393.411 128.356L393.359 128.369ZM408.178 205.945C408.178 206.598 408.178 207.25 408.126 207.85C406.769 208.098 405.517 208.502 405.217 209.363C407.734 209.559 405.217 211.829 405.217 213.381C402.96 212.781 404.617 212.076 404.617 210.615C404.265 210.615 403.417 210.668 402.856 210.615C403.208 208.45 405.673 206.65 408.178 205.945ZM408.126 208.359V210.12C407.826 210.224 407.578 210.368 407.278 210.472C406.978 209.115 407.434 208.607 408.126 208.359ZM401.186 258.046C400.938 258.998 400.677 259.95 400.429 260.916C399.882 261.516 399.582 261.92 399.529 260.263C399.425 258.098 400.182 257.902 401.29 256.389C401.134 256.585 401.29 256.546 401.29 256.389C401.29 256.989 401.134 257.446 400.938 258.046H401.186ZM399.281 264.633C399.229 264.881 399.177 265.09 399.125 265.286C398.825 265.39 398.473 265.181 398.173 264.385C398.577 264.49 398.929 264.581 399.281 264.633ZM396.568 272.917C396.373 273.517 396.164 274.078 395.968 274.626C395.016 274.926 394.207 274.978 394.207 274.469C394.403 274.169 395.368 273.412 396.568 272.917ZM390.242 288.688C387.724 294.362 384.919 299.893 381.854 305.267C381.697 304.915 381.554 304.511 381.397 304.106C380.797 302.398 377.484 297.728 380.497 299.084C379.088 296.567 379.297 295.066 380.145 292.497C381.097 294.806 381.697 292.04 382.506 291.74C384.411 290.984 387.124 290.736 388.885 289.875C389.394 289.627 389.837 289.17 390.242 288.675V288.688ZM5.04614 159.715C6.80717 152.123 8.9204 144.688 11.4772 137.409C12.7816 137.709 14.1383 137.813 15.9515 137.409C18.5604 136.9 21.6259 135.452 24.1957 135.452C22.839 137.109 20.5823 136.861 19.1735 138.661C20.7258 137.761 24.4435 135.752 25.761 135.452C26.4133 135.348 25.6567 134.448 26.8698 134.604C27.7699 134.709 28.2265 136.417 28.6309 136.417C29.831 136.522 30.3397 138.126 31.0963 135.57C32.1007 138.739 34.6184 136.078 37.2273 136.522C39.2883 136.978 45.2628 138.635 47.0238 140.083C45.9672 140.435 45.615 141.192 45.315 141.335C48.8762 141.688 54.8115 140.174 56.0116 144.649C56.4682 141.779 55.1115 141.635 57.9683 140.422C59.8728 139.613 60.0815 140.37 62.0904 140.827C65.1037 141.531 68.6779 143.031 70.4781 139.718C69.6693 139.418 69.0693 138.609 68.2735 138.257C68.6779 137.8 69.6824 136.744 70.0868 136.3C71.7956 136.6 72.9566 137.657 72.8522 139.366H71.8478C72.6957 140.566 71.3912 140.213 73.0088 140.67C72.9044 142.431 72.5 141.922 74.261 143.083C73.2044 140.122 76.6221 140.97 76.6743 138.361C75.2133 139.666 73.961 139.77 73.3088 138.061C77.4309 138.909 70.1389 134.5 73.661 132.034C77.3787 129.426 77.7309 134.448 78.931 136.209C79.8311 137.565 82.1009 138.27 82.5966 138.57C83.001 138.766 84.0576 138.27 85.2577 139.574C85.3099 139.626 83.901 141.74 85.2577 142.444C88.2188 143.957 88.7797 136.47 89.9277 136.013C88.0623 135.465 83.7967 135.009 82.8966 133.652C83.901 133.704 84.5533 133.195 85.7142 133.495C84.1619 131.239 80.9921 133.143 82.5444 128.878C83.7445 125.76 86.51 125.408 89.432 125.564C86.6665 126.921 86.1186 132.7 89.9799 132.191C88.1145 129.726 87.9188 126.764 91.6365 126.06C94.102 125.603 93.8411 125.356 95.3542 127.521C96.2543 128.773 94.5455 129.53 95.9021 130.234C96.8022 130.691 100.781 128.369 102.842 129.034C105.503 129.882 105.751 132.1 109.625 132.204C109.273 132.4 108.921 132.661 108.568 132.856C110.525 133.404 111.53 133.861 113.695 134.317C113.499 134.617 113.343 134.865 113.147 135.165C114.308 135.413 114.608 136.117 115.508 136.47C114.856 136.77 114.96 136.77 114.452 137.174C115.052 137.331 115.652 137.474 116.213 137.631C110.382 138.831 122.044 142.053 123.244 143.605C124.444 145.066 124.3 143.853 123.4 145.51C123.4 145.457 120.687 147.675 120.843 147.623C118.782 148.223 119.891 147.427 117.282 146.018C115.678 145.17 115.117 143.762 113.721 145.823C115.534 148.236 117.739 149.84 119.604 151.601C119.409 152.202 119.004 153.767 118.756 154.21C116.852 153.049 114.843 152.045 112.834 151.093C113.891 152.749 116.852 153.754 116.8 155.658C114.491 154.406 111.425 154.654 109.469 153.102C107.512 151.497 107.303 149.332 104.199 148.979C103.246 148.875 99.4242 151.588 99.2285 149.084C98.9807 146.527 104.199 147.675 105.66 147.323C103.898 144.714 107.825 144.766 107.721 142.705C107.668 141.153 105.764 139.992 104.707 139.235C102.242 137.37 100.337 135.674 97.5197 134.865C97.924 135.27 98.3676 135.622 98.7719 136.026C96.1108 136.978 93.3976 135.778 90.8799 136.183C92.3409 136.835 97.4153 139.548 93.2932 140.253C95.3542 142.77 93.9454 145.275 90.9321 145.523C90.1233 146.527 91.3365 146.475 89.3798 146.579C90.0842 148.132 98.7198 151.197 94.2976 151.954C93.7497 152.006 92.9932 151.197 92.3409 151.301C91.7931 151.406 89.8233 152.306 89.9799 152.306C88.0232 152.358 87.5144 152.006 86.2099 150.649C87.7623 150.049 90.1755 144.375 86.6665 144.675C89.9277 148.092 81.9965 146.188 80.6399 146.136C82.4531 146.984 84.0054 148.04 86.1186 147.897C85.5186 149.853 84.4098 151.419 82.1009 150.062C81.553 152.528 77.8744 150.662 75.9177 150.519C76.6743 150.767 80.4442 151.328 80.5877 152.28C80.8355 153.689 78.5266 153.989 77.5222 154.993C76.6221 155.893 75.3177 157.954 75.2133 159.259C74.9133 162.376 75.722 161.268 77.2744 163.172C77.7309 163.72 77.8222 165.285 78.4745 165.69C79.3746 166.238 79.6746 165.285 80.7312 165.742C81.8922 166.198 83.4445 166.694 84.8011 167.346C87.8144 168.899 89.9277 169.407 93.3975 170.007C93.0975 172.212 93.8541 178.043 96.8674 177.847C99.9329 177.547 98.6806 171.964 97.324 170.464C102.203 170.621 103.155 164.19 98.9285 162.429C99.385 161.581 99.1763 161.072 99.5285 160.263H100.585C97.3762 155.593 100.389 153.284 104.903 154.484C108.868 155.489 112.991 157.25 111.53 162.376C113.891 161.724 113.591 163.929 115.704 163.485C117.908 162.976 117.908 160.576 119.265 159.063C120.074 160.928 124.796 166.003 123.139 167.007C124.653 169.368 127.105 170.425 129.766 170.881C128.214 172.186 126.153 171.782 125.148 173.543C127.261 173.295 130.823 171.377 131.827 174.09C132.832 176.752 129.518 177.104 127.405 177.965C125.148 178.917 125.396 179.217 122.735 179.517C121.026 179.621 118.665 179.008 116.956 179.517C114.399 180.221 112.691 183.991 109.677 183.287C110.277 183.443 110.877 183.639 111.438 183.743C110.434 184.591 109.625 185.609 108.973 186.757C111.334 185.244 117.008 178.917 119.278 182.439C120.126 183.691 116.669 185.452 120.23 187.357C122.944 188.818 123.544 187.005 125.761 186C124.913 188.466 121.796 190.566 119.082 190.879C118.978 190.879 115.717 192.94 116.878 190.579C117.282 189.77 120.048 188.713 120.491 188.818C117.178 188.009 108.281 191.179 110.59 195.653C108.986 196.11 106.52 196.253 105.516 197.114C104.759 197.871 103.703 200.728 103.207 201.784C101.85 200.428 102.503 201.484 101.198 201.132C101.707 203.297 102.855 204.197 102.046 205.959C101.146 208.02 97.9762 208.424 96.463 210.185C94.1541 212.846 97.2196 222.447 95.4586 222.59C93.9976 222.747 91.7931 215.507 90.4364 214.555C90.9843 214.959 86.5621 214.098 86.7709 214.098C84.9055 213.994 81.9443 213.59 82.7009 216.212C79.5311 217.216 75.0698 213.146 72.2 217.32C70.1389 220.386 69.9954 228.721 73.4523 231.787C75.0046 233.144 78.2266 234.148 80.2355 232.596C82.4009 230.835 80.6921 228.421 84.2011 228.174C88.1145 227.926 85.4012 234.2 83.601 236.157C85.6621 237.057 89.8755 235.205 91.5452 237.566C93.4497 240.383 89.432 243.24 93.2019 245.758C94.7542 246.814 100.442 245.21 100.089 247.767C99.9329 249.019 95.6673 245.51 96.3195 249.371C94.0628 248.419 90.4364 247.258 88.8319 245.81C87.7231 244.753 86.7187 241.897 84.6055 240.436C84.4489 240.631 80.5355 239.979 79.3354 239.235C78.1353 238.531 77.47 236.927 75.9699 236.47C74.6654 236.118 73.8567 236.979 73.1523 236.874C70.7912 236.522 56.4681 231.2 60.0946 228.734C57.5769 225.917 55.3724 222.408 52.9591 219.786C51.0546 217.725 48.1326 211.842 45.5237 212.155C45.7715 215.625 55.0202 224.064 52.6591 226.478C52.4634 225.369 49.9458 222.408 49.4501 221.86C48.6935 221.103 47.1412 220.347 46.5803 219.551C45.628 218.194 46.5281 217.894 46.1237 217.242C44.9236 215.233 43.8148 212.716 42.5625 210.759C40.9581 208.294 38.297 208.202 36.5359 206.285C33.5226 203.023 31.2659 196.84 31.305 192.418C31.305 190.057 32.8573 187.344 31.6572 184.474C30.4962 181.709 27.783 180.952 25.9828 178.747C29.8571 178.291 32.2573 182.165 34.5271 184.931C34.8271 182.113 32.4138 180.052 30.4049 178.852C27.5873 177.195 26.8438 176.947 24.874 174.286C23.713 172.773 22.9695 170.921 21.7042 168.964C21.5085 168.612 19.891 167.907 19.6953 167.659C19.0952 167.059 18.8474 166.303 18.4952 165.546C14.7253 164.894 12.1685 161.476 8.4508 160.276C7.342 159.924 6.24625 159.872 5.13745 159.82L5.04614 159.715ZM95.6804 154.797C96.6326 160.276 100.598 151.536 95.6804 154.797V154.797ZM91.7148 155.097C93.0193 155.097 93.7758 154.341 93.5802 153.284C93.1236 153.48 89.4581 155.097 91.7148 155.097ZM99.659 128.369C100.716 127.86 101.316 127.26 102.568 127.117C100.703 125.408 98.198 125.708 95.8369 125.76C95.8891 128.069 97.3892 128.969 99.659 128.369ZM109.155 234.174C111.817 233.574 115.691 234.018 118.352 233.117C117.152 231.604 113.525 232.113 111.269 231.813C109.86 231.617 106.951 229.948 106.703 232.217C106.547 233.626 107.864 234.422 109.169 234.174C108.973 234.226 109.469 234.122 109.169 234.174H109.155ZM101.968 233.718C101.368 232.713 100.063 232.413 98.7589 232.609C99.5677 233.718 101.068 234.618 101.968 233.718C101.864 233.522 101.72 233.965 101.968 233.718ZM104.733 230.248C103.572 228.382 98.8111 227.287 96.7892 226.53C95.4325 226.021 92.4714 224.821 90.8147 225.773C89.0015 226.83 89.4581 226.973 91.4148 227.887C92.2627 228.343 92.7714 226.987 93.5802 227.13C94.689 227.326 95.3934 228.291 95.9934 228.487C99.1633 229.648 101.12 230.248 104.733 230.248ZM178.592 147.297C180.001 147.101 180.497 147.101 180.901 148.549C179.844 148.353 178.892 148.353 177.836 148.549L177.992 149.449C181.11 148.94 178.697 150.701 180.301 151.262C180.601 151.367 184.214 151.771 184.423 151.719C187.189 151.615 187.384 151.014 189.745 149.762C191.754 148.653 192.654 150.167 193.267 148.053C193.515 147.245 192.067 147.205 191.754 147.153C192.406 143.331 187.228 146.749 184.671 146.397C184.267 146.344 182.01 146.044 182.414 146.097C181.305 145.992 182.519 144.388 181.358 145.797C178.54 144.844 177.836 147.453 178.592 147.31C178.396 147.362 178.788 147.258 178.592 147.31V147.297ZM131.462 177.899C130.862 178.252 127.34 183.978 127.588 184.435C128.135 185.335 130.001 184.487 131.057 184.787C132.61 185.244 132.962 185.896 134.527 186.652C136.941 183.039 134.684 181.774 131.162 180.678C131.162 180.73 133.327 176.856 131.462 177.913C131.658 177.808 131.305 178.017 131.462 177.913V177.899ZM123.218 181.265C121.704 180.756 121.013 180.104 119.552 180.365C120.961 181.174 121.861 183.235 123.218 181.265C123.022 181.213 123.165 181.369 123.218 181.265ZM166.369 140.122C166.826 139.966 167.269 140.631 167.622 140.67C170.335 141.57 170.335 140.514 172.539 139.666C174.496 138.909 179.427 137.852 180.131 136C177.47 138.061 171.183 133.182 177.875 133.482C177.575 133.482 180.836 136.9 181.592 133.939C181.892 132.83 179.127 130.169 178.279 129.713C178.788 129.308 181.801 131.474 180.888 128.656C180.431 127.299 179.688 127.299 177.927 127.899C178.227 127.351 178.579 127.391 178.775 126.895C178.475 126.791 178.175 126.647 177.927 126.491C178.879 126.491 181.645 127.847 182.949 126.947C185.91 124.99 181.084 125.695 181.084 124.743C181.084 124.495 185.61 124.286 185.91 123.738C184.958 122.838 182.492 121.22 185.454 120.973C185.506 118.507 181.788 118.507 182.245 117.098C182.401 116.551 184.201 116.29 184.71 116.498C186.667 117.255 185.062 117.398 185.91 119.159C186.458 115.99 187.671 115.246 183.849 115.246C184.906 114.046 183.901 114.894 185.662 114.046C184.606 112.389 181.945 113.994 181.945 113.994C179.231 111.789 188.832 105.802 189.732 104.654C188.532 104.758 187.319 104.549 186.119 104.497C188.637 103.989 190.032 104.041 192.198 102.632C192.798 102.28 195.863 102.684 194.507 100.571C194.259 100.219 191.037 100.414 190.737 100.414C188.532 100.714 186.471 101.067 184.606 101.575C183.445 101.927 178.683 104.445 177.979 104.341C180.745 100.871 182.245 100.375 177.222 99.6185C177.222 101.627 175.761 101.432 173.857 101.732C174.157 100.127 175.266 100.78 176.414 100.219C173.596 98.1054 168.378 101.38 165.261 100.871C166.108 98.3532 178.879 98.1575 181.788 97.8575V97.1531C178.879 97.1531 177.562 96.6965 175.305 96.3052C171.887 95.7573 168.574 96.5531 165.261 96.2008C167.726 94.5442 172.644 95.2486 176.114 95.2486C175.761 92.5875 160.434 93.6963 158.477 94.2963C156.364 95.0007 158.282 95.7052 155.607 96.0052C154.055 96.1617 152.79 95.2486 151.185 95.1964C149.724 95.1442 146.815 95.3921 145.159 96.0443C145.667 96.9966 146.815 96.5922 146.815 98.001C146.215 97.4923 143.45 96.3443 144.35 98.0532C144.154 97.6488 149.229 100.61 147.768 100.61C144.559 100.61 142.093 98.0532 138.676 98.0532C138.676 98.7576 140.789 100.01 141.089 101.119C139.028 100.571 137.671 98.7054 135.467 98.4576C136.067 99.6185 136.223 102.28 134.41 101.223C134.41 101.171 135.258 99.0185 134.058 98.3141C132.649 97.5053 128.031 100.375 127.079 99.8664C128.135 100.271 129.949 100.819 130.744 101.732C129.283 101.732 128.031 100.727 126.518 100.532C125.513 100.427 125.761 99.6316 124.457 100.232C123.205 100.832 124.209 101.784 123.857 101.993C122.657 102.697 120.191 102.997 117.882 104.197C116.982 104.654 114.817 104.602 114.921 106.154C116.226 106.506 116.93 106.154 118.13 106.154C119.03 106.154 118.078 109.063 117.935 109.219C117.53 109.572 115.626 109.467 115.026 109.624C113.421 110.028 110.603 109.872 109.051 110.824C103.82 113.837 113.421 114.085 116.239 114.085C115.691 116.446 109.912 114.685 109.912 116.042C109.912 116.694 112.43 117.398 112.925 117.555C112.521 117.555 112.469 117.555 112.325 117.855C113.134 118.455 114.582 119.759 115.743 119.316C115.639 119.159 115.195 118.716 115.443 118.559C117.152 117.503 124.535 118.312 126.596 119.616C129.505 121.521 131.775 125.395 132.075 128.956H132.779C129.87 134.187 136.901 129.856 138.91 134.63C137.006 134.683 135.245 133.326 133.484 134.083C133.94 135.387 132.375 137.5 135.036 137.552C137.345 137.605 138.102 135.948 135.388 135.544C139.21 135.087 138.297 136.6 139.354 139.261C137.645 139.209 136.288 139.509 136.341 141.166C132.518 140.657 136.536 145.692 136.797 146.488C136.693 146.292 137.906 145.979 138.154 146.436C138.31 146.84 136.901 147.336 137.306 147.688C136.706 147.14 138.01 149.853 137.854 149.449C137.802 149.345 139.315 148.549 139.615 148.601C138.415 151.014 139.615 155.084 142.224 157.041C143.385 157.889 149.111 160.107 150.011 159.598C151.264 158.893 150.911 156.285 151.472 155.071C151.772 154.367 150.664 154.171 151.12 153.31C151.316 152.854 152.477 153.154 152.829 152.502C154.381 149.632 153.429 146.918 157.303 146.618C157.199 144.753 157.408 146.071 158.36 145.457C158.164 150.284 166.343 140.135 166.395 140.083L166.369 140.122ZM82.9227 116.511C84.5272 119.029 91.9104 118.116 94.6237 117.672C95.3281 119.486 99.6981 118.377 99.5024 115.963C99.0981 116.159 98.6937 116.316 98.3023 116.511C98.1458 116.107 98.0545 115.755 97.898 115.35C99.659 115.05 99.5546 114.594 99.1502 113.041C101.316 113.642 103.168 113.342 101.668 111.333C101.42 110.98 103.977 111.228 103.977 110.928C103.977 108.815 100.063 109.467 99.0589 110.38L98.7589 109.624C101.277 107.863 103.99 110.276 106.351 108.163C105.894 107.811 105.451 107.511 104.994 107.158C106.547 107.615 108.06 107.967 109.821 107.263C109.064 106.663 109.169 106.206 108.164 105.802C111.777 106.65 116.056 102.736 119.422 101.836C118.313 100.727 115.456 101.784 113.591 101.588C115.104 99.6316 123.492 101.536 123.987 98.8228C124.339 97.0096 116.747 96.6574 114.895 97.1662C114.191 96.4617 111.282 95.653 109.469 95.4573C108.764 98.0141 100.52 94.2963 101.133 97.2183C98.8763 96.3704 93.8019 95.9139 92.0409 98.3793C93.9454 98.275 96.0587 98.6793 97.0109 100.245C95.1064 99.736 92.4844 98.4837 90.8277 98.1836C89.0667 97.8314 87.6188 98.7315 87.11 98.8359C85.2968 99.0837 81.5791 100.036 79.3224 100.545C79.3224 100.74 79.3224 101.001 79.2702 101.249C81.1747 101.797 81.2791 102.906 83.3923 103.558C86.4056 104.458 86.51 102.854 89.1189 102.501C83.888 105.567 92.0279 104.51 93.4367 104.158C96.3456 103.454 98.3545 101.745 101.42 101.849C100.22 101.954 99.0068 102.501 98.0545 103.362C99.2155 103.167 100.116 103.519 101.224 103.519C99.672 104.68 94.7411 105.071 92.4844 105.176V105.984C93.9976 106.584 94.8455 107.693 96.6587 107.641C94.0498 108.345 90.1233 105.776 87.2144 105.436C87.4622 107.954 91.8844 109.963 94.402 109.806C93.8541 110.459 93.5932 111.007 93.0975 111.567C88.7276 107.25 82.1922 113.929 90.2799 112.468C89.8755 112.715 89.432 112.924 88.9754 113.172C89.9277 114.724 91.6887 114.229 92.941 112.872C91.48 116.837 87.11 113.068 84.3967 113.42C85.5055 115.129 84.4489 115.833 82.9357 116.537L82.9227 116.511ZM83.6271 111.541C84.0315 110.993 84.8272 111.346 84.5794 109.937C89.4581 110.693 88.3493 107.68 85.2838 105.763C85.4794 105.867 75.4351 100.793 75.6829 102.293C76.3873 102.449 77.0396 101.94 77.1961 102.841C77.1961 102.945 74.535 103.297 74.235 103.245C74.835 103.702 75.0437 104.302 75.2916 104.549C74.535 104.445 73.9349 104.706 73.2305 104.654C72.9827 105.163 72.7218 106.31 72.6826 107.015C74.548 108.88 77.2091 107.315 79.1658 108.919C78.0049 109.024 76.8047 109.624 75.696 109.767C77.9527 111.776 80.966 112.533 83.6402 111.528L83.6271 111.541ZM79.6094 114.15C79.4137 114.502 79.1528 114.855 78.9571 115.207C80.2616 115.611 81.2138 115.507 82.3748 114.959C81.6704 113.655 80.966 113.902 79.6094 114.15ZM80.8616 123.399C82.3748 123.099 99.2546 124.456 96.7892 120.581C95.276 118.22 88.5971 120.738 86.5882 120.686C82.2705 120.581 81.7095 116.159 77.9005 117.268C79.3093 119.733 77.7961 122.342 80.8616 123.399ZM70.2042 123.699H71.313C70.8042 122.538 70.8042 123.451 70.2042 123.699ZM72.5652 121.794C73.374 122.499 77.5353 124.403 77.0917 121.69C76.7395 119.486 73.3218 120.529 72.5652 121.794ZM76.3351 118.481C78.044 116.72 75.5786 115.468 73.7784 115.768C70.0607 116.316 74.6263 118.533 76.3351 118.481ZM73.2175 114.816C74.5741 114.816 75.9308 114.659 77.2352 114.307V113.55C75.5786 113.302 73.7132 113.146 73.2175 114.803V114.816ZM73.5175 112.911C77.3396 112.011 70.9608 110.25 69.7476 110.654C70.2955 112.468 71.5086 113.563 73.5175 112.911ZM69.2519 107.184C68.704 106.128 68.2996 105.58 66.8908 105.828V106.728C67.8953 107.184 68.2996 107.38 69.2519 107.184ZM68.2475 113.772C69.3563 109.95 61.8165 108.098 58.9466 109.206C60.0554 109.663 60.6033 110.511 61.4121 111.163H60.1598C61.2686 112.715 66.0821 112.924 68.2475 113.772ZM65.3385 113.929C64.3862 113.576 64.0862 113.028 62.8731 113.328C63.3296 114.633 64.0732 114.229 65.3385 113.929ZM64.6341 120.607C66.1864 119.799 67.1517 120.412 67.5039 122.212C69.5128 122.108 71.0651 121.403 70.8173 119.199C70.5172 116.837 68.104 117.842 65.9386 116.994C66.6952 117.503 67.4909 118.298 67.9474 119.159C67.8431 119.003 64.8819 117.855 64.3341 117.751C64.4906 118.403 64.4906 119.003 64.7384 119.655C63.3296 118.599 62.6774 116.785 60.6685 116.59C60.4729 118.899 62.573 120.06 64.6341 120.607ZM60.212 121.207C60.3685 121.312 61.8686 123.073 61.8686 121.26C61.8686 120.255 60.4076 121.207 60.212 121.207ZM60.7598 115.481C60.1598 114.581 59.5075 113.929 58.5553 113.472C58.6075 115.024 59.3641 115.885 60.7598 115.481ZM100.598 142.914C101.707 143.214 104.72 142.862 103.664 141.101C102.711 139.587 99.2937 140.748 100.598 142.914ZM75.8786 129.947C76.3351 129.139 77.0787 129.439 77.0396 128.238C79.1528 128.995 80.0529 127.078 81.1617 125.577C79.6094 124.977 76.283 123.869 74.8872 124.873C73.6349 125.773 73.1262 130.756 75.8916 129.947H75.8786ZM69.1475 132.361C72.6696 132.361 73.374 129.152 69.9955 127.638C72.5522 126.791 70.5433 125.225 69.0954 124.73C68.8475 124.677 66.7343 125.786 65.5342 125.577C67.6996 127.782 66.0429 129.243 63.6688 127.938C63.7731 129.452 67.7387 131.604 69.1475 132.361ZM60.6033 127.534C61.2034 125.421 58.5422 125.016 57.29 126.177C58.4901 127.286 59.351 128.043 60.6033 127.534ZM55.5289 125.773C56.4812 126.882 55.6855 125.93 55.5289 125.773V125.773ZM48.0935 111.854H53.5722C52.62 109.846 49.6067 110.393 48.0935 111.854ZM49.6458 115.22C51.1981 115.22 53.1157 115.024 51.8112 113.563C52.4113 113.263 52.6591 113.511 53.1157 112.755C51.3025 112.598 49.5545 112.702 48.0413 113.655C48.3413 114.711 48.8892 114.855 49.6458 115.207V115.22ZM46.9847 113.863C46.4759 112.859 46.3846 112.207 44.9236 112.454C45.2237 113.707 45.8759 113.615 46.9847 113.863ZM45.4324 117.685C43.267 118.285 41.1146 120.555 42.6147 121.755C43.9714 122.864 48.9414 121.755 50.6502 121.912C50.0502 122.564 46.4759 121.912 46.7368 123.164C47.0369 124.573 49.698 123.673 50.6111 123.516C52.4765 123.164 59.5076 122.264 58.9466 119.642C59.1423 120.647 54.381 117.033 54.7723 117.124C52.5678 116.472 51.7069 117.777 52.8678 119.786C53.2722 119.981 53.9766 119.681 54.1201 120.242C54.3158 121.051 46.5803 118.077 45.4324 117.685ZM45.8889 116.224C46.3977 116.42 46.5412 117.229 47.7543 116.981C47.7543 116.733 47.7021 116.472 47.65 116.224C47.1021 116.381 46.489 116.381 45.8889 116.224ZM39.8101 119.486C39.5623 119.786 39.2623 120.086 39.0014 120.386C40.7102 120.386 40.358 120.686 41.2581 119.133C40.7493 119.238 40.3058 119.381 39.7971 119.486H39.8101ZM42.2234 117.581C43.5279 117.124 44.1801 116.12 44.3888 114.672C39.771 113.563 38.2578 117.79 34.0444 118.285C36.0533 121.299 39.0144 118.533 40.7754 116.877C41.232 118.233 41.7799 117.281 42.2364 117.581H42.2234ZM43.28 137.526C46.5933 137.278 46.6977 138.987 49.2545 139.692C51.8112 140.396 53.7809 138.583 56.0899 138.139C57.4465 137.892 66.5386 139.392 63.3296 136.887C64.6341 136.887 65.0385 136.235 65.7951 135.883C62.9774 133.926 61.8295 133.926 60.4207 131.265C59.8728 130.208 57.5117 125.134 55.542 127.547C54.6419 128.708 57.9031 131.317 55.4898 131.161C54.2375 131.004 54.3288 127.743 52.0199 127.638C52.3199 128.095 52.5287 128.643 52.7765 129.152C51.8242 129.556 51.3677 129.699 50.3633 129.908C50.6111 129.504 50.7155 128.852 50.872 128.395C49.1631 127.743 47.5587 128.095 46.6064 128.695C47.363 125.825 44.6497 127.182 43.2409 127.795C40.7233 128.956 40.632 129.504 39.5232 131.461C41.1798 132.113 42.993 131.004 44.5453 132.217C43.2931 132.321 42.0799 132.765 41.1798 133.522C42.8887 134.422 48.3674 133.013 49.2675 134.578C49.6197 135.126 43.2409 135.426 42.2364 136.039C42.5886 136.548 42.993 137.044 43.2931 137.552L43.28 137.526ZM56.0899 140.54C57.4465 140.135 58.2944 139.887 58.6075 138.674C57.1987 138.922 55.7898 139.483 54.5375 140.227C55.0854 140.331 55.5942 140.422 56.0899 140.527V140.54ZM34.7358 132.256C37.449 132.661 38.5578 129.086 40.9189 127.886C44.6888 125.93 45.6411 125.33 40.7624 124.325C39.5101 124.077 33.1704 122.564 31.8659 123.673C31.1615 124.273 30.9137 128.799 29.3092 130.613C31.0702 130.717 32.7269 131.669 33.4313 133.378C33.8879 133.026 34.3314 132.622 34.7358 132.269V132.256ZM286.25 288.805C286.25 285.844 288.363 279.765 284.893 278.408C284.893 279.465 283.536 281.826 282.884 282.426C281.58 283.587 279.623 283.078 278.318 284.383C277.262 285.335 278.423 288.401 278.318 289.262C278.071 290.814 277.418 290.971 277.066 292.927C276.662 295.445 277.262 299.163 280.588 298.406C283.849 297.702 282.793 296.749 283.354 293.84C283.406 293.488 284.202 290.227 284.306 290.175C284.554 289.823 286.263 289.327 286.263 288.818L286.25 288.805ZM260.826 215.807C259.365 212.337 258.569 213.694 255.347 213.29C250.729 212.742 247.155 211.229 242.785 210.276C242.785 214.451 242.889 213.694 240.072 213.694C240.619 213.694 237.554 212.794 237.867 212.937H235.61C235.415 212.533 235.258 212.129 235.154 211.737C233.797 211.281 229.727 210.576 228.879 209.481C227.327 207.367 230.64 206.963 227.823 205.163C228.579 204.511 228.475 204.458 229.532 204.211C228.071 201.745 224.105 204.054 221.992 204.106C219.787 204.158 217.374 203.154 214.504 204.406C212.6 205.215 211.295 206.363 208.725 206.272C205.608 206.219 203.951 204.106 203.951 208.137H201.642C202.699 211.855 199.985 209.441 199.385 210.655C198.433 212.611 198.733 214.92 197.872 216.186C197.324 216.942 195.315 217.947 194.507 218.951C193.607 220.008 192.55 221.821 191.598 223.217C190.645 224.625 186.771 228.239 187.332 230.404C187.489 231.004 189.641 230.156 189.993 230.861C190.293 231.461 189.537 231.709 189.693 232.061C190.293 233.665 189.289 236.287 189.145 237.892C188.989 239.849 188.845 241.505 191.011 243.775C193.32 246.188 195.433 248.197 198.042 250.454C198.89 251.21 199.346 252.971 201.251 253.363C203.364 253.767 203.612 252.854 205.673 252.554C207.434 252.358 208.738 253.154 209.938 253.102C212.495 252.997 212.3 252.045 214.361 251.341C216.069 250.793 219.683 250.936 220.635 251.341C222.148 251.993 221.796 253.154 224.053 253.65C227.966 254.498 227.718 252.541 227.823 256.715C227.875 258.62 227.066 261.085 226.009 262.194C230.888 263.746 234.097 273.804 233.341 278.578C232.532 283.352 229.623 283.548 232.14 288.675C233.654 291.844 234.149 293.749 235.01 297.219C235.91 300.832 238.728 303.298 239.785 306.559C240.633 309.324 239.276 310.224 240.685 311.738C244.402 315.807 254.147 311.033 257.069 307.915C258.178 306.715 260.082 304.654 260.682 303.193C261.334 301.785 260.486 299.776 260.839 298.876C261.191 298.223 263.604 297.767 264.4 296.762C266.461 294.049 263.343 292.888 263.943 290.031C264.4 287.722 268.665 286.561 269.866 285.466C272.931 282.752 273.075 279.687 272.331 275.617C271.874 273.308 269.774 269.89 270.674 267.073C271.835 263.303 276.649 259.689 279.519 257.172C281.632 255.267 283.745 253.154 285.193 250.584C286.145 248.875 286.745 248.719 287.006 246.41C287.411 242.849 287.958 243.697 284.893 243.697C280.575 243.645 279.31 245.301 276.297 242.04C274.588 240.135 271.822 238.322 270.166 236.209C268.561 234.096 266.904 229.321 265.9 226.869C264.387 223.099 263.539 219.186 260.826 215.82C261.021 216.068 260.721 215.572 260.826 215.82V215.807ZM395.877 262.429C394.572 262.677 397.077 263.029 397.586 262.938C397.586 262.09 396.633 262.285 395.877 262.429ZM386.928 264.542C386.928 264.542 388.533 266.551 388.337 266.303C388.233 266.251 388.585 268.116 388.637 268.312C389.746 267.555 389.446 265.403 389.446 264.19H390.398C390.502 264.646 392.159 268.364 392.811 268.064C393.972 267.555 391.807 263.498 391.155 262.637C398.238 262.637 386.928 258.515 386.928 264.542ZM395.825 258.059C394.625 258.515 387.841 257.602 388.194 260.42C390.398 259.415 391.011 259.611 393.372 259.115C394.129 258.959 394.325 259.82 395.238 259.415C395.694 259.22 397.494 257.354 395.838 258.059C396.138 257.902 395.733 258.111 395.838 258.059H395.825ZM393.62 275.8C392.968 275.852 392.811 276.1 393.164 276.556H394.064C394.116 276.152 394.116 275.604 393.607 275.8C393.711 275.747 393.359 275.852 393.607 275.8H393.62ZM388.794 272.682C390.098 273.986 394.272 272.878 395.825 272.277C394.572 272.03 389.341 272.03 388.794 272.682ZM388.246 273.634C386.341 274.234 389.85 275.186 390.45 275.147C390.202 274.847 388.898 273.543 388.246 273.634C387.998 273.738 388.35 273.634 388.246 273.634ZM384.424 272.33C383.315 272.434 387.189 272.682 387.946 272.682C387.698 272.734 387.698 272.578 387.789 272.277C386.537 272.277 385.624 272.121 384.424 272.33C384.228 272.382 384.672 272.33 384.424 272.33ZM367.844 269.773C369.605 271.13 372.07 271.534 375.032 271.834C377.393 272.134 380.354 273.347 382.924 272.995C382.167 271.534 380.719 271.182 379.101 271.482C379.206 270.425 379.949 270.934 380.758 270.477C376.388 269.721 372.37 269.629 367.844 269.773ZM363.174 267.568C363.07 268.625 362.874 268.273 363.174 267.568V267.568ZM374.027 257.172C372.018 258.581 373.271 261.137 374.431 262.651C376.088 264.907 376.793 264.659 379.91 265.168C383.119 265.716 382.115 266.577 383.928 263.916C383.98 263.759 384.332 261.659 384.685 261.046C385.141 260.289 386.889 259.937 387.398 258.789C385.389 257.485 385.937 257.133 385.493 254.224C387.046 254.328 386.602 253.271 388.102 252.711C388.259 253.115 384.437 250.102 384.737 250.049C383.537 250.154 382.676 252.215 381.723 253.011C379.61 254.915 375.945 258.594 374.04 257.185L374.027 257.172ZM357.904 261.698C358.008 262.703 359.665 265.168 360.669 265.416C360.474 264.007 357.904 261.803 357.904 261.698C357.956 261.894 357.904 261.542 357.904 261.698ZM355.438 258.281C355.843 259.037 356.599 259.233 356.899 259.989C356.899 259.089 356.652 258.385 355.699 257.981C355.399 258.737 355.699 258.385 355.451 258.281H355.438ZM354.33 256.324C354.33 256.076 353.821 255.424 353.821 256.128C353.821 256.728 354.225 257.028 354.773 257.08C354.93 256.728 354.773 256.48 354.317 256.324H354.33ZM354.838 252.802C353.99 252.802 353.534 251.954 352.725 252.045C353.077 253.806 355.895 255.567 356.847 256.767C358.308 258.633 359.561 261.333 361.113 263.355C362.169 264.712 364.726 268.429 366.135 268.482C369.344 268.586 367.544 265.468 370.048 264.712C369.748 262.703 367.935 261.998 366.383 263.107C366.187 260.85 357.839 253.154 354.825 252.802C355.178 252.854 354.721 252.802 354.825 252.802H354.838ZM394.377 247.48C392.72 247.675 391.259 248.784 392.172 250.649C393.477 247.441 395.433 251.106 397.599 252.058C396.842 250.454 398.199 250.102 398.199 250.049C398.251 249.749 398.903 245.823 397.547 245.823C396.19 245.823 395.89 248.536 394.377 247.48C394.129 247.532 394.481 247.584 394.377 247.48ZM389.85 240.396C389.798 240.944 391.559 245.314 392.864 245.066C392.211 246.475 394.468 247.48 393.92 244.662C393.672 243.501 391.155 240.592 389.85 240.396C389.85 240.592 389.955 240.449 389.85 240.396ZM392.055 240.201C393.959 241.505 395.264 244.075 397.325 244.518C397.325 242.157 395.12 241.61 395.12 239.548C393.92 239.548 393.255 240.201 392.055 240.201C392.303 240.357 392.303 240.201 392.055 240.201ZM389.146 241.557C388.037 243.762 385.128 245.979 384.528 247.793C387.046 247.793 389.146 244.075 389.146 241.557C389.146 241.662 389.146 241.805 389.146 241.557ZM390.346 232.609C388.089 233.809 388.637 238.44 391.246 239.235C391.089 237.774 394.364 232.609 390.346 232.609ZM330.758 245.966C329.858 247.075 330.458 253.154 332.767 251.041C334.019 249.88 331.162 246.423 330.758 245.966ZM391.846 222.956C391.846 222.199 388.781 224.665 389.237 227.482H390.137C390.137 225.617 391.846 224.665 391.846 222.956ZM370.896 112.872C370.44 112.063 369.135 111.867 368.287 112.272C368.535 112.52 371.249 113.785 370.896 112.872C370.792 112.715 370.949 112.976 370.896 112.872ZM353.064 116.433C353.612 116.277 354.173 116.433 354.669 116.433C354.473 114.529 353.664 116.029 353.064 116.433ZM359.691 113.668C360.043 113.668 367.283 112.154 367.426 111.959C369.24 109.598 363.865 109.846 363.461 109.65C363.813 109.246 363.97 109.245 364.061 108.802C360.891 108.254 359.391 113.681 359.691 113.681V113.668ZM354.812 106.128C349.49 106.884 350.247 109.898 355.164 110.354C358.882 110.707 359.13 110.811 358.934 108.593C358.687 105.528 358.934 107.041 356.117 107.041C356.417 106.532 356.417 106.637 356.521 106.141H354.812V106.128ZM350.247 106.428C352.36 107.537 355.373 104.615 356.573 103.819C353.808 102.514 349.986 102.358 347.781 105.28C347.938 105.528 349.686 106.18 350.247 106.441C350.142 106.389 350.351 106.493 350.247 106.441V106.428ZM349.647 107.132C348.642 107.132 347.886 106.532 346.829 106.728C346.986 109.846 351.055 107.132 349.647 107.132ZM346.477 102.162C344.168 102.162 345.968 103.115 345.825 103.362C345.368 104.119 348.786 102.162 346.477 102.162ZM286.837 137.983C285.48 137.787 283.275 136.222 284.28 139.392C285.128 139.392 286.693 138.935 286.837 137.983C286.732 137.983 286.784 138.087 286.837 137.983ZM292.72 126.934C291.363 126.777 288.598 130.352 288.598 132.204C289.354 132.048 289.902 131.552 290.359 132.504C290.659 132.348 290.763 132.152 290.659 131.904C292.42 132.752 291.207 133.769 292.172 134.161C293.372 134.709 295.733 134.513 297.09 134.513C296.933 132.648 294.885 132.048 294.729 130.339C294.572 128.225 296.333 126.973 297.638 125.669C300.703 122.655 303.521 120.947 308.034 119.89C309.339 119.538 314.87 118.377 314.27 116.981C313.422 114.868 310.252 117.229 309.091 117.581C306.325 118.481 297.077 118.69 297.077 122.108C296.529 122.003 295.968 122.003 295.42 122.108C296.829 124.521 291.807 124.469 292.25 126.073C292.759 125.969 292.902 125.773 293.502 125.877C293.202 126.582 293.959 127.038 292.694 126.934C292.942 126.934 292.498 126.882 292.694 126.934H292.72ZM315.731 127.638C316.931 127.638 317.596 126.882 317.935 126.686C318.587 126.334 313.813 127.638 315.731 127.638ZM304.825 103.375C306.534 105.984 307.695 103.532 309.652 103.18C307.839 102.123 306.482 103.936 304.825 103.375ZM301.055 103.375C301.055 104.275 300.455 104.028 299.999 104.732C301.303 105.189 302.764 105.241 304.264 104.928C303.012 103.323 303.103 102.162 301.055 103.375ZM300.547 106.141C300.09 106.245 299.738 106.337 299.294 106.337C299.49 107.393 300.194 106.845 301.055 106.637C301.003 106.232 301.055 105.984 300.547 106.128C300.651 106.128 300.39 106.18 300.547 106.128V106.141ZM295.172 105.684C295.877 106.284 295.981 107.237 297.077 105.841C297.077 107.55 299.281 105.945 299.594 105.684C299.647 105.489 299.594 105.28 299.49 105.084C298.133 104.784 296.02 105.384 295.172 105.684ZM290.802 105.841C292.054 104.536 294.768 103.975 296.685 104.432C296.229 101.667 299.203 105.384 299.594 102.88C298.942 102.88 298.342 102.984 297.69 102.88C297.938 102.475 298.446 101.575 298.59 101.419C297.585 101.419 296.881 102.071 296.333 102.227C296.685 102.123 294.468 102.736 294.272 102.88C293.672 103.18 293.516 103.988 292.72 104.536C291.663 105.293 291.167 104.693 290.815 105.841H290.802ZM284.723 103.78C282.467 103.78 281.854 104.589 279.753 104.132C279.858 105.789 282.662 104.68 283.98 104.68C281.267 106.584 285.793 107.093 287.098 105.384C289.211 102.514 287.202 103.78 284.736 103.78H284.723ZM240.919 106.337C241.376 107.641 244.181 105.932 244.689 107.341C243.933 107.289 243.176 107.393 242.433 107.341C243.789 111.215 251.42 107.798 253.181 106.741C251.473 104.836 249.059 106.441 247.559 105.984C247.807 105.384 248.211 105.476 248.107 104.823C246.294 105.528 246.75 104.928 245.694 106.728C245.042 104.967 240.111 104.562 240.919 106.323C240.815 106.167 240.972 106.48 240.919 106.323V106.337ZM237.802 112.168C237.802 112.572 233.732 112.324 233.236 114.033C234.241 113.785 237.358 113.081 237.763 113.628C237.11 114.033 233.797 114.581 233.745 114.829C233.641 115.376 236.654 116.837 237.306 117.698C239.263 116.185 241.18 113.276 241.18 111.215C241.728 111.111 242.785 111.111 243.346 111.215C243.098 113.081 243.541 111.763 244.35 112.82C244.95 113.629 243.75 114.281 243.75 115.076C245.863 113.772 246.059 115.533 246.868 115.376C247.716 115.22 249.229 114.372 250.077 114.176C249.177 112.924 248.211 114.333 248.211 112.572C247.311 112.676 241.233 109.05 241.024 108.502C240.776 108.606 240.319 108.75 239.824 108.502C240.019 108.045 240.28 107.745 240.372 107.302C238.063 106.193 238.011 107.458 236.902 107.758C237.45 107.602 236.093 109.063 235.949 109.115C236.302 108.959 235.402 107.25 235.245 107.25C235.441 107.302 232.688 108.306 232.727 108.254C233.027 107.798 233.132 107.302 233.38 106.897C232.023 107.197 226.349 108.554 230.862 109.206C230.862 109.754 230.966 111.215 230.758 111.724C229.949 111.32 230.053 110.563 228.997 110.315C229.401 111.163 231.058 113.837 231.058 111.424C232.01 111.528 232.114 112.937 233.471 112.481C233.98 112.324 234.28 111.32 234.828 111.28C234.88 111.28 237.645 111.033 237.789 112.181C237.789 111.933 237.789 112.233 237.789 112.181L237.802 112.168ZM204.094 163.068C203.39 163.368 202.633 164.177 202.49 164.881C203.142 164.685 205.255 162.872 204.094 163.068C203.847 163.172 204.199 163.068 204.094 163.068ZM205.699 180.248C207.251 180.248 208.412 179.139 209.312 178.995C210.669 178.8 212.573 179.452 213.682 178.943C215.587 178.043 216.239 176.178 215.691 174.417C215.391 173.308 214.53 175.069 214.491 175.017C213.982 174.508 214.087 173.608 213.682 173.256C212.978 172.656 212.026 171.247 211.126 170.19C209.769 168.586 209.573 168.99 209.364 167.672C209.26 166.825 212.782 163.446 207.551 165.011C207.956 164.255 208.06 163.655 208.856 163.146C207.147 161.437 206.39 164.098 205.738 164.607C205.634 164.711 202.125 165.911 204.89 166.368C204.642 167.177 203.729 168.325 203.781 168.833C204.681 168.938 205.842 169.642 206.09 168.677C205.842 171.638 207.447 169.981 208.556 172.395C209.808 175.212 207.199 173.295 205.842 174.951C206.39 175.056 206.795 175.004 207.395 175.108C207.395 175.917 205.334 176.269 205.986 177.065C206.442 177.573 208.595 176.817 209.299 177.521C208.999 177.769 204.773 180.234 205.686 180.234L205.699 180.248ZM204.394 172.355C207.812 171.847 199.02 167.477 201.081 171.547C199.424 171.847 197.259 174.103 199.92 174.012C196.45 178.982 201.277 175.669 204.186 176.321C204.29 175.121 204.434 173.803 204.381 172.355H204.394ZM105.32 332.922C104.72 332.766 104.772 331.813 104.316 331.813C104.512 331.813 102.959 333.626 102.959 333.626C102.959 333.874 105.777 336.092 106.025 336.183C105.868 336.379 105.829 336.588 105.868 336.835C100.95 336.835 104.864 341.101 104.107 342.914C104.512 342.862 104.864 342.862 105.307 342.914C105.307 343.371 105.112 343.566 104.603 343.619C105.412 344.467 105.007 343.971 105.764 344.167C105.516 344.062 109.025 348.537 109.586 348.889C112.495 350.702 115.313 349.789 118.078 349.593C117.974 348.693 114.465 347.689 113.708 345.928C113.056 344.271 111.451 339.953 114.256 340.201C114.256 338.44 117.817 336.483 117.517 335.179C117.269 333.666 113.695 334.579 114.96 331.618C115.313 330.665 117.269 331.161 117.674 330.665C118.078 330.209 117.569 329.413 118.078 328.852C117.726 329.257 119.891 325.487 119.63 326.895C120.087 324.43 117.765 326.948 118.274 323.334C121.887 324.743 122.591 323.439 122.044 320.125C125.005 320.23 128.579 320.321 129.936 317.412C131.449 314.399 128.631 315.051 128.07 312.39C131.384 312.846 132.636 313.994 135.206 311.738C136.406 310.629 137.371 306.311 138.728 306.507C138.532 307.107 138.428 307.159 138.571 307.707C142.485 305.75 141.389 300.219 143.541 297.662C144.95 295.954 146.855 295.145 148.863 294.597C151.981 293.697 152.829 293.892 154.59 290.827C156.703 287.214 155.842 281.683 157.499 278.774C158.751 276.608 161.412 275.356 162.117 272.891C162.625 271.286 162.521 271.377 162.117 269.877C161.217 266.616 161.269 268.768 159.208 267.164C157.003 265.403 156.09 265.051 153.325 264.503C151.864 264.203 146.594 264.607 148.798 263.446C147.989 262.898 146.633 262.09 145.589 261.842C142.928 261.333 143.528 261.946 141.624 262.742C141.78 262.494 142.576 260.733 142.628 260.576C141.871 260.472 140.919 260.12 140.215 259.924C139.51 259.729 139.915 261.477 138.454 261.281C138.754 260.629 141.571 257.159 138.91 257.159C139.367 252.489 135.088 252.241 132.231 251.537C129.923 250.989 124.744 248.628 124.744 246.006C123.439 246.462 121.13 245.849 123.139 244.949C121.783 243.188 118.965 245.653 118.169 245.601C115.26 245.497 113.852 243.044 111.086 242.536C111.086 244.049 110.029 243.697 109.182 244.597C109.025 244.753 109.429 246.801 109.338 247.154C107.734 245.849 108.138 243.084 109.795 242.079C107.186 241.375 99.946 246.149 99.5416 249.41C99.2937 251.223 101.198 253.128 99.946 255.593C99.2937 257.002 96.4761 259.82 94.976 260.316C95.276 262.677 94.2715 263.081 96.6848 263.277C95.6804 264.986 93.3715 265.99 94.6759 268.808C95.0281 269.564 96.5413 269.708 97.1414 270.569C97.7414 271.469 98.3937 272.773 98.798 273.739C99.6068 275.8 100.403 279.217 101.707 280.77C103.572 282.883 105.725 283.483 108.034 285.244C111.856 288.309 110.447 294.74 109.847 299.463C109.495 302.071 108.542 304.537 108.242 306.95C107.89 309.768 108.242 312.729 107.081 315.39C105.829 318.351 105.881 320.112 105.125 323.426C105.125 323.23 105.073 325.63 105.125 325.03C105.073 325.539 104.068 326.035 104.277 326.687C105.386 329.896 106.286 325.134 107.394 325.03C106.586 327.235 106.286 329.152 105.986 331.709C105.386 330.652 105.229 331.252 105.033 329.844C104.329 330.196 105.386 332.309 105.333 332.909L105.32 332.922ZM55.5289 125.773C56.4812 126.882 55.6855 125.93 55.5289 125.773V125.773Z" fill="#5163A2"/>
<path d="M95.6802 154.797C100.598 151.536 96.6324 160.276 95.6802 154.797V154.797ZM5.09814 159.52C5.29381 158.763 5.45035 158.006 5.64602 157.263C5.80256 156.558 5.99823 155.802 6.15476 155.097C6.3113 154.445 6.50697 153.793 6.6635 153.141C6.91135 152.293 7.12007 151.484 7.36792 150.623C7.47227 150.167 7.61576 149.723 7.72012 149.319C8.88109 145.301 10.1334 141.335 11.49 137.409C12.7945 137.709 14.1511 137.813 15.9643 137.409C18.5733 136.9 21.6388 135.452 24.2086 135.452C22.8519 137.109 20.5952 136.861 19.1864 138.661C20.7387 137.761 24.4564 135.752 25.7739 135.452C26.4261 135.348 25.6696 134.448 26.8827 134.604C27.7828 134.709 28.2393 136.417 28.6437 136.417C29.8438 136.522 30.3526 138.126 31.1092 135.57C32.1136 138.739 34.6312 136.078 37.2402 136.522C39.3012 136.978 45.2757 138.635 47.0367 140.083C45.9801 140.435 45.6279 141.192 45.3278 141.335C48.889 141.688 54.8243 140.174 56.0244 144.649C56.481 141.779 55.1244 141.635 57.9811 140.422C59.8857 139.613 60.0944 140.37 62.1033 140.827C65.1166 141.531 68.6908 143.031 70.491 139.718C69.6822 139.418 69.0821 138.609 68.2864 138.257C68.6908 137.8 69.6952 136.744 70.0996 136.3C71.8085 136.6 72.9695 137.657 72.8651 139.366H71.8606C72.7085 140.566 71.4041 140.213 73.0216 140.67C72.9173 142.431 72.5129 141.922 74.2739 143.083C73.2173 140.122 76.635 140.97 76.6872 138.361C75.2262 139.666 73.9739 139.77 73.3217 138.061C77.4438 138.909 70.1518 134.5 73.6739 132.034C77.3916 129.426 77.7438 134.448 78.9439 136.209C79.844 137.565 82.1137 138.27 82.6094 138.57C83.0138 138.766 84.0704 138.27 85.2706 139.574C85.3227 139.626 83.9139 141.74 85.2706 142.444C88.2317 143.957 88.7926 136.47 89.9405 136.013C88.0751 135.465 83.8095 135.009 82.9095 133.652C83.9139 133.704 84.5661 133.195 85.7271 133.495C84.1748 131.239 81.005 133.143 82.5573 128.878C83.7574 125.76 86.5228 125.408 89.4448 125.564C86.6794 126.921 86.1315 132.7 89.9927 132.191C88.1273 129.726 87.9317 126.764 91.6494 126.06C94.1148 125.603 93.8539 125.356 95.3671 127.521C96.2672 128.773 94.5583 129.53 95.915 130.234C96.8151 130.691 100.794 128.369 102.855 129.034C105.516 129.882 105.764 132.1 109.638 132.204C109.286 132.4 108.934 132.661 108.581 132.856C110.538 133.404 111.542 133.861 113.708 134.317C113.512 134.617 113.356 134.865 113.16 135.165C114.321 135.413 114.621 136.117 115.521 136.47C114.869 136.77 114.973 136.77 114.464 137.174C115.065 137.331 115.665 137.474 116.226 137.631C110.395 138.831 122.056 142.053 123.257 143.605C124.457 145.066 124.313 143.853 123.413 145.51C123.413 145.457 120.7 147.675 120.856 147.623C118.795 148.223 119.904 147.427 117.295 146.018C115.691 145.17 115.13 143.762 113.734 145.823C115.547 148.236 117.752 149.84 119.617 151.601C119.421 152.202 119.017 153.767 118.769 154.21C116.865 153.049 114.856 152.045 112.847 151.093C113.904 152.749 116.865 153.754 116.813 155.658C114.504 154.406 111.438 154.654 109.481 153.102C107.525 151.497 107.316 149.332 104.211 148.979C103.259 148.875 99.437 151.588 99.2414 149.084C98.9935 146.527 104.211 147.675 105.672 147.323C103.911 144.714 107.838 144.766 107.733 142.705C107.681 141.153 105.777 139.992 104.72 139.235C102.255 137.37 100.35 135.674 97.5325 134.865C97.9369 135.27 98.3804 135.622 98.7848 136.026C96.1237 136.978 93.4104 135.778 90.8928 136.183C92.3538 136.835 97.4282 139.548 93.306 140.253C95.3671 142.77 93.9583 145.275 90.945 145.523C90.1362 146.527 91.3493 146.475 89.3927 146.579C90.0971 148.132 98.7326 151.197 94.3105 151.954C93.7626 152.006 93.006 151.197 92.3538 151.301C91.8059 151.406 89.8362 152.306 89.9927 152.306C88.036 152.358 87.5273 152.006 86.2228 150.649C87.7751 150.049 90.1884 144.375 86.6794 144.675C89.9405 148.092 82.0094 146.188 80.6527 146.136C82.466 146.984 84.0183 148.04 86.1315 147.897C85.5314 149.853 84.4226 151.419 82.1137 150.062C81.5659 152.528 77.8873 150.662 75.9306 150.519C76.6872 150.767 80.4571 151.328 80.6006 152.28C80.8484 153.689 78.5395 153.989 77.5351 154.993C76.635 155.893 75.3305 157.954 75.2262 159.259C74.9261 162.376 75.7349 161.268 77.2872 163.172C77.7438 163.72 77.8351 165.285 78.4873 165.69C79.3874 166.238 79.6874 165.285 80.7441 165.742C81.905 166.198 83.4573 166.694 84.814 167.346C87.8273 168.899 89.9405 169.407 93.4104 170.007C93.1104 172.212 93.867 178.043 96.8803 177.847C99.9458 177.547 98.6935 171.964 97.3368 170.464C102.216 170.621 103.168 164.19 98.9413 162.429C99.3979 161.581 99.1892 161.072 99.5414 160.263H100.598C97.389 155.593 100.402 153.284 104.916 154.484C108.881 155.489 113.003 157.25 111.542 162.376C113.904 161.724 113.604 163.929 115.717 163.485C117.921 162.976 117.921 160.576 119.278 159.063C120.087 160.928 124.809 166.003 123.152 167.007C124.665 169.368 127.118 170.425 129.779 170.881C128.227 172.186 126.166 171.782 125.161 173.543C127.274 173.295 130.836 171.377 131.84 174.09C132.844 176.752 129.531 177.104 127.418 177.965C125.161 178.917 125.409 179.217 122.748 179.517C121.039 179.621 118.678 179.008 116.969 179.517C114.412 180.221 112.703 183.991 109.69 183.287C110.29 183.443 110.89 183.639 111.451 183.743C110.447 184.591 109.638 185.609 108.986 186.757C111.347 185.244 117.021 178.917 119.291 182.439C120.139 183.691 116.682 185.452 120.243 187.357C122.957 188.818 123.557 187.005 125.774 186C124.926 188.466 121.809 190.566 119.095 190.879C118.991 190.879 115.73 192.94 116.891 190.579C117.295 189.77 120.061 188.713 120.504 188.818C117.191 188.009 108.294 191.179 110.603 195.653C108.999 196.11 106.533 196.253 105.529 197.114C104.772 197.871 103.716 200.728 103.22 201.784C101.863 200.428 102.516 201.484 101.211 201.132C101.72 203.297 102.868 204.197 102.059 205.959C101.159 208.02 97.9891 208.424 96.4759 210.185C94.167 212.846 97.2325 222.447 95.4715 222.59C94.0105 222.747 91.8059 215.507 90.4493 214.555C90.9971 214.959 86.575 214.098 86.7837 214.098C84.9183 213.994 81.9572 213.59 82.7138 216.212C79.544 217.216 75.0827 213.146 72.2129 217.32C70.1518 220.386 70.0083 228.721 73.4651 231.787C75.0175 233.144 78.2395 234.148 80.2484 232.596C82.4138 230.835 80.7049 228.421 84.2139 228.174C88.1273 227.926 85.414 234.2 83.6139 236.157C85.6749 237.057 89.8884 235.205 91.5581 237.566C93.4626 240.383 89.4448 243.24 93.2147 245.758C94.7671 246.814 100.455 245.21 100.102 247.767C99.9458 249.019 95.6802 245.51 96.3324 249.371C94.0757 248.419 90.4493 247.258 88.8448 245.81C87.736 244.753 86.7316 241.897 84.6183 240.436C84.4618 240.631 80.5484 239.979 79.3483 239.235C78.1482 238.531 77.4829 236.927 75.9828 236.47C74.6783 236.118 73.8695 236.979 73.1651 236.874C70.804 236.522 56.481 231.2 60.1074 228.734C57.5898 225.917 55.3853 222.408 52.972 219.786C51.0675 217.725 48.1455 211.842 45.5366 212.155C45.7844 215.625 55.0331 224.064 52.672 226.478C52.4763 225.369 49.9587 222.408 49.463 221.86C48.7064 221.103 47.1541 220.347 46.5932 219.551C45.6409 218.194 46.541 217.894 46.1366 217.242C44.9365 215.233 43.8277 212.716 42.5754 210.759C40.9709 208.294 38.3098 208.202 36.5488 206.285C33.5355 203.023 31.2788 196.84 31.3179 192.418C31.3179 190.057 32.8702 187.344 31.6701 184.474C30.5091 181.709 27.7958 180.952 25.9957 178.747C29.8699 178.291 32.2702 182.165 34.5399 184.931C34.8399 182.113 32.4267 180.052 30.4178 178.852C27.6002 177.195 26.8566 176.947 24.8869 174.286C23.7259 172.773 22.9824 170.921 21.717 168.964C21.5214 168.612 19.9038 167.907 19.7082 167.659C19.1081 167.059 18.8603 166.303 18.508 165.546C14.7381 164.894 12.1814 161.476 8.46367 160.276C7.35487 159.924 6.25912 159.872 5.15032 159.82L5.2025 159.624L5.09814 159.52ZM301.068 103.454C301.42 104.002 301.72 104.562 302.02 105.058C301.316 105.058 300.664 104.954 300.012 104.706C300.468 104.002 301.016 104.197 301.068 103.454ZM308.699 117.672C308.947 118.272 309.247 118.872 309.547 119.486C308.895 119.681 308.347 119.786 308.034 119.89C303.508 120.947 300.703 122.655 297.637 125.669C296.333 126.973 294.572 128.225 294.728 130.339C294.885 132.048 296.933 132.648 297.09 134.513C295.733 134.513 293.372 134.709 292.172 134.161C291.219 133.756 292.42 132.752 290.659 131.904C290.763 132.152 290.659 132.361 290.358 132.504C289.902 131.552 289.354 132.048 288.597 132.204C288.597 130.339 291.363 126.778 292.72 126.934C292.967 126.934 292.524 126.882 292.72 126.934C293.972 127.038 293.228 126.582 293.528 125.877C292.928 125.773 292.772 125.982 292.276 126.073C291.819 124.469 296.842 124.521 295.446 122.108C295.994 122.003 296.555 122.003 297.103 122.108C297.103 118.846 305.49 118.494 308.712 117.685L308.699 117.672ZM313.826 129.23C315.691 133.796 317.387 138.426 318.952 143.149C317.7 144.101 315.391 143.957 314.778 144.857C317.491 145.053 317.687 145.51 319.448 144.61C325.683 164.15 329.049 185.009 329.049 206.611C329.049 220.229 327.692 233.496 325.136 246.358C324.027 244.597 323.231 240.983 322.722 239.731C321.822 237.422 320.909 235.466 320.518 233C320.27 231.748 320.974 230.287 320.113 229.178C318.404 226.765 319.265 229.426 317.648 228.93C316.696 228.63 311.869 226.413 316.096 226.413C313.682 225.956 313.539 224.808 311.921 223.895C309.012 222.238 307.956 222.538 304.29 222.434C302.686 222.382 299.32 222.082 297.964 221.429C297.259 221.077 297.116 219.877 296.555 219.721C295.85 219.564 294.65 219.916 294.141 219.721C291.076 218.768 290.228 217.907 287.606 216.159C285.545 214.698 283.836 213.551 284.436 217.06C284.593 218.064 286.641 220.321 287.306 220.829C287.502 220.934 291.833 222.134 291.924 222.486C286.302 223.491 291.076 223.386 294.128 223.647C294.233 222.043 294.481 221.938 295.329 220.882C296.085 221.482 296.333 223.491 296.529 224.404C298.538 222.447 297.129 223.699 298.537 224.86C299.294 225.512 301.055 226.673 301.199 227.73C299.646 228.382 299.594 228.487 299.594 230.6C298.59 230.195 297.077 232.309 296.333 233.157C294.728 234.97 293.372 234.513 291.063 235.57C289.25 236.418 288.154 237.331 285.936 238.231C283.98 239.079 281.619 240.944 279.662 240.944C275.24 240.892 277.353 238.779 275.749 235.27C274.588 232.713 271.835 230.952 270.478 228.682C268.365 225.121 267.569 220.49 264.295 217.073C262.13 219.277 260.825 213.551 258.869 212.65C260.121 211.998 261.334 213.355 262.639 212.807C263.747 212.298 265.3 210.289 265.704 209.037C266.956 205.476 266.656 204.315 263.343 203.61C263.291 204.119 263.291 204.511 263.343 204.967C261.53 205.372 261.034 204.015 259.925 204.067C260.03 204.067 257.16 204.615 258.269 204.771C257.212 204.615 256.103 204.876 254.799 203.715C254.799 203.911 254.903 205.672 254.29 205.672C253.781 205.672 251.877 192.405 248.407 197.532C248.655 197.532 248.863 197.636 248.916 197.884C247.911 198.34 247.402 198.04 246.502 197.532C246.202 198.132 248.107 200.949 249.02 200.949C249.124 200.649 249.124 200.349 249.02 200.049C249.568 200.049 249.92 200.454 250.22 200.949C248.459 201.197 245.341 206.272 244.389 201.549C243.541 202.606 242.837 201.954 242.328 200.649C242.928 200.545 243.085 200.702 243.737 200.845C243.137 199.736 242.38 196.971 241.832 195.966C240.932 194.31 238.819 193.501 237.215 192.301C234.854 190.592 231.736 186.326 231.384 191.14C232.492 191.035 234.854 192.849 234.645 194.31C236.902 194.61 239.563 196.723 240.528 198.575C240.019 198.575 238.415 198.223 237.762 198.027C237.71 198.327 237.658 198.575 237.658 198.836H239.015C237.958 201.393 234.045 205.919 231.579 201.602C240.776 201.602 234.24 197.636 230.575 194.766C229.323 193.762 227.862 190.944 226.348 190.696C225.24 190.54 223.231 192.953 222.826 193.005C221.77 193.201 220.009 191.844 219.004 192.457C217.843 193.162 218.952 194.323 218.3 194.818C217.791 195.275 214.686 196.175 213.982 197.023C213.434 197.675 213.226 199.227 212.978 199.58C212.925 199.632 213.878 200.388 213.578 200.832C213.03 201.589 212.678 200.728 211.973 201.38C210.264 202.984 207.499 203.897 205.347 204.693C205.699 204.641 205.751 204.798 205.503 205.15C204.199 203.545 203.546 204.393 202.19 203.545C200.076 202.189 200.885 203.65 200.285 201.236C199.581 198.575 200.794 195.314 199.985 192.549C204.251 190.735 214.804 196.071 210.486 187.422C209.677 185.818 208.829 185.413 208.073 184.357C207.525 183.6 205.516 184.004 207.121 182.752C208.425 181.748 212.847 184.409 210.643 180.587C211.595 180.482 212.456 181.787 213.904 181.343C214.36 181.239 215.508 178.473 215.665 178.382C217.126 177.273 220.935 177.534 218.978 175.017C220.491 175.017 222.852 174.26 224.209 173.464C226.87 171.912 225.866 173.816 226.022 170.347C226.074 169.042 225.122 167.529 226.479 166.172C228.383 164.163 229.036 164.62 228.683 167.125C228.983 167.229 229.283 167.229 229.583 167.125C229.427 167.529 229.127 168.325 229.127 168.729C229.479 168.886 231.331 168.22 231.892 167.973C232.297 172.695 228.475 168.925 228.227 171.534C228.736 171.99 229.74 172.342 230.692 172.382C230.94 169.968 234.762 172.186 235.61 172.134C238.219 171.886 239.523 169.316 241.885 171.677C240.58 169.564 242.589 170.425 244.193 170.425C244.246 169.42 244.089 165.455 245.955 164.75C247.468 164.203 247.311 168.116 249.92 164.75C249.02 164.15 248.916 163.59 247.859 163.042C247.311 162.794 245.694 165.351 244.846 163.146C245.55 162.95 246.046 162.689 246.75 162.689C246.45 162.533 246.202 162.389 245.85 162.233C245.902 162.181 249.216 161.072 250.168 160.928C252.581 160.628 255.438 161.528 257.499 159.467C253.833 157.406 248.407 161.776 245.341 158.163C240.919 153.036 250.52 151.38 250.064 148.419C249.868 147.062 247.194 145.862 246.046 146.553C244.533 147.505 244.533 149.919 243.88 150.78C242.876 152.032 240.971 152.136 239.915 153.336C237.802 155.802 239.51 157.654 239.51 159.715C242.328 159.715 240.463 160.772 239.967 162.076C239.811 162.429 237.854 164.946 237.358 165.69C237.867 166.042 238.115 166.042 238.91 165.99C239.015 166.238 239.015 166.446 238.91 166.746C237.502 167.099 236.602 167.646 234.945 168.259C233.993 168.612 234.945 170.216 232.74 169.316C231.84 169.016 233.04 168.259 232.636 167.803C231.331 166.29 230.223 161.02 228.723 160.772C226.466 163.642 225.253 163.237 221.835 163.237C221.731 162.429 222.187 162.285 222.239 161.424C219.122 161.176 223.753 159.011 220.335 159.115C221.183 156.102 221.691 153.689 225.866 152.841C225.566 152.032 225.709 152.293 225.709 151.68C226.766 151.928 230.236 150.427 230.431 148.914H229.179C229.831 148.262 230.992 147.558 231.736 147.453C232.14 144.688 235.506 140.866 237.762 140.37C236.054 139.522 233.693 140.97 232.14 141.479C232.897 140.474 233.745 139.822 235.154 139.822C235.154 139.313 235.206 139.574 234.958 139.066C235.91 138.609 236.315 137.905 236.915 137.657C237.423 139.261 237.071 138.818 238.623 139.418C239.276 137.461 237.515 138.766 239.38 136.9C239.68 139.105 241.089 136.744 240.684 135.243C241.741 135.139 243.346 136.144 243.346 137.2C243.946 136.744 243.802 136.496 243.802 135.596C244.807 135.948 246.007 135.596 246.92 136C245.263 135.048 244.963 133.287 248.172 133.639C246.659 135.243 250.833 133.039 251.433 132.935V133.939C251.185 133.939 250.625 133.835 250.377 133.939C250.377 136.104 251.133 135.4 251.381 133.691C252.138 134.396 252.49 134.2 252.894 135.152C252.738 134.5 252.894 134.043 252.894 133.287C253.351 133.13 254.499 133.13 255.008 133.287C254.903 133.639 254.707 134.448 254.499 134.8C256.051 134.8 255.151 133.287 257.408 134.5C258.256 134.956 259.169 135.752 257.408 135.752C258.464 136.704 262.991 135.948 261.882 138.27C262.834 138.87 266.109 138.27 268.313 139.118C269.67 139.626 273.335 140.983 273.687 142.483C275.292 148.719 261.882 143.436 260.63 143.188C262.039 145.053 263.943 146.958 264.856 148.458C265.913 150.219 264.7 149.919 267.061 151.067C267.256 151.171 269.618 151.523 269.618 150.767C269.618 149.762 264.895 149.567 268.065 147.858C269.37 149.514 271.235 148.706 272.787 149.567C272.84 148.914 272.031 147.61 271.731 147.153C272.787 147.049 274.34 145.34 274.901 145.197C275.605 145.092 278.162 145.653 277.914 145.797C278.866 145.197 278.162 140.318 277.21 139.366C279.414 139.366 283.941 141.975 280.079 141.831C279.727 146.553 284.802 141.883 285.206 141.635C287.567 140.031 290.28 139.979 292.589 138.622C290.985 143.449 299.829 136.104 299.829 140.383C305.255 138.218 297.168 135.009 299.985 134.552C300.586 134.448 304.655 136.561 305.764 136.913C307.93 137.67 309.638 138.466 311.895 139.079C311.947 139.079 313.956 141.844 314.504 139.835C314.752 138.674 313.148 138.726 312.795 137.97C312.247 136.861 311.491 137.07 311.139 136.261C311.543 137.109 311.543 132.387 311.034 133.796C311.086 133.6 312.991 130.482 313.852 129.23H313.826ZM95.6802 154.797C100.598 151.536 96.6324 160.276 95.6802 154.797V154.797ZM91.7146 155.097C93.0191 155.097 93.7757 154.341 93.58 153.284C93.1234 153.48 89.4579 155.097 91.7146 155.097ZM99.6588 128.369C100.715 127.86 101.315 127.26 102.568 127.117C100.702 125.408 98.1978 125.708 95.8367 125.76C95.8889 128.069 97.389 128.969 99.6588 128.369ZM109.155 234.174C111.816 233.574 115.691 234.018 118.352 233.117C117.152 231.604 113.525 232.113 111.269 231.813C109.86 231.617 106.951 229.948 106.703 232.217C106.546 233.626 107.864 234.422 109.168 234.174C109.468 234.122 108.973 234.226 109.168 234.174H109.155ZM101.968 233.718C101.368 232.713 100.063 232.413 98.7587 232.609C99.5675 233.718 101.068 234.618 101.968 233.718C101.863 233.522 101.72 233.965 101.968 233.718ZM104.733 230.248C103.572 228.382 98.8109 227.287 96.789 226.53C95.4323 226.021 92.4712 224.821 90.8145 225.773C89.0013 226.83 89.4579 226.973 91.4146 227.887C92.2625 228.343 92.7712 226.987 93.58 227.13C94.6888 227.326 95.3932 228.291 95.9932 228.487C99.1631 229.648 101.12 230.248 104.733 230.248ZM178.592 147.297C180.001 147.101 180.496 147.101 180.901 148.549C179.844 148.353 178.892 148.353 177.835 148.549L177.992 149.449C181.11 148.94 178.696 150.701 180.301 151.262C180.601 151.367 184.214 151.771 184.423 151.719C187.188 151.615 187.384 151.014 189.745 149.762C191.754 148.653 192.654 150.167 193.267 148.053C193.515 147.245 192.067 147.205 191.754 147.153C192.406 143.331 187.228 146.749 184.671 146.397C184.266 146.344 182.01 146.044 182.414 146.097C181.305 145.992 182.518 144.388 181.357 145.797C178.54 144.844 177.835 147.453 178.592 147.31C178.788 147.258 178.396 147.362 178.592 147.31V147.297ZM131.462 177.899C130.862 178.252 127.34 183.978 127.587 184.435C128.135 185.335 130.001 184.487 131.057 184.787C132.61 185.244 132.962 185.896 134.527 186.652C136.94 183.039 134.684 181.774 131.162 180.678C131.162 180.73 133.327 176.856 131.462 177.913C131.305 178.017 131.657 177.808 131.462 177.913V177.899ZM123.217 181.265C121.704 180.756 121.013 180.104 119.552 180.365C120.961 181.174 121.861 183.235 123.217 181.265C123.022 181.213 123.165 181.369 123.217 181.265ZM166.369 140.122C166.826 139.966 167.269 140.631 167.621 140.67C170.335 141.57 170.335 140.514 172.539 139.666C174.496 138.909 179.427 137.852 180.131 136C177.47 138.061 171.183 133.182 177.875 133.482C177.574 133.482 180.836 136.9 181.592 133.939C181.892 132.83 179.127 130.169 178.279 129.713C178.788 129.308 181.801 131.474 180.888 128.656C180.431 127.299 179.688 127.299 177.927 127.899C178.227 127.351 178.579 127.391 178.775 126.895C178.475 126.791 178.175 126.647 177.927 126.491C178.879 126.491 181.644 127.847 182.949 126.947C185.91 124.99 181.083 125.695 181.083 124.743C181.083 124.495 185.61 124.286 185.91 123.738C184.958 122.838 182.492 121.22 185.453 120.973C185.506 118.507 181.788 118.507 182.244 117.098C182.401 116.551 184.201 116.29 184.71 116.498C186.667 117.255 185.062 117.398 185.91 119.159C186.458 115.99 187.671 115.246 183.849 115.246C184.906 114.046 183.901 114.894 185.662 114.046C184.606 112.389 181.944 113.994 181.944 113.994C179.231 111.789 188.832 105.802 189.732 104.654C188.532 104.758 187.319 104.549 186.119 104.497C188.636 103.989 190.032 104.041 192.198 102.632C192.798 102.28 195.863 102.684 194.506 100.571C194.259 100.219 191.037 100.414 190.737 100.414C188.532 100.714 186.471 101.067 184.606 101.575C183.445 101.927 178.683 104.445 177.979 104.341C180.744 100.871 182.244 100.375 177.222 99.6185C177.222 101.627 175.761 101.432 173.857 101.732C174.157 100.127 175.266 100.78 176.414 100.219C173.596 98.1054 168.378 101.38 165.26 100.871C166.108 98.3532 178.879 98.1575 181.788 97.8575V97.1531C178.879 97.1531 177.561 96.6965 175.305 96.3052C171.887 95.7573 168.574 96.5531 165.26 96.2008C167.726 94.5442 172.644 95.2486 176.113 95.2486C175.761 92.5875 160.434 93.6963 158.477 94.2963C156.364 95.0007 158.281 95.7052 155.607 96.0052C154.055 96.1617 152.79 95.2486 151.185 95.1964C149.724 95.1442 146.815 95.3921 145.159 96.0443C145.667 96.9966 146.815 96.5922 146.815 98.001C146.215 97.4923 143.45 96.3443 144.35 98.0532C144.154 97.6488 149.228 100.61 147.767 100.61C144.558 100.61 142.093 98.0532 138.675 98.0532C138.675 98.7576 140.789 100.01 141.089 101.119C139.028 100.571 137.671 98.7054 135.466 98.4576C136.066 99.6185 136.223 102.28 134.41 101.223C134.41 101.171 135.258 99.0185 134.058 98.3141C132.649 97.5053 128.031 100.375 127.079 99.8664C128.135 100.271 129.948 100.819 130.744 101.732C129.283 101.732 128.031 100.727 126.518 100.532C125.513 100.427 125.761 99.6316 124.457 100.232C123.204 100.832 124.209 101.784 123.857 101.993C122.657 102.697 120.191 102.997 117.882 104.197C116.982 104.654 114.817 104.602 114.921 106.154C116.226 106.506 116.93 106.154 118.13 106.154C119.03 106.154 118.078 109.063 117.934 109.219C117.53 109.572 115.625 109.467 115.025 109.624C113.421 110.028 110.603 109.872 109.051 110.824C103.82 113.837 113.421 114.085 116.239 114.085C115.691 116.446 109.912 114.685 109.912 116.042C109.912 116.694 112.43 117.398 112.925 117.555C112.521 117.555 112.469 117.555 112.325 117.855C113.134 118.455 114.582 119.759 115.743 119.316C115.638 119.159 115.195 118.716 115.443 118.559C117.152 117.503 124.535 118.312 126.596 119.616C129.505 121.521 131.775 125.395 132.075 128.956H132.779C129.87 134.187 136.901 129.856 138.91 134.63C137.006 134.683 135.245 133.326 133.484 134.083C133.94 135.387 132.375 137.5 135.036 137.552C137.345 137.605 138.101 135.948 135.388 135.544C139.21 135.087 138.297 136.6 139.354 139.261C137.645 139.209 136.288 139.509 136.34 141.166C132.518 140.657 136.536 145.692 136.797 146.488C136.693 146.292 137.906 145.979 138.154 146.436C138.31 146.84 136.901 147.336 137.306 147.688C136.706 147.14 138.01 149.853 137.854 149.449C137.801 149.345 139.315 148.549 139.615 148.601C138.414 151.014 139.615 155.084 142.223 157.041C143.384 157.889 149.111 160.107 150.011 159.598C151.263 158.893 150.911 156.285 151.472 155.071C151.772 154.367 150.663 154.171 151.12 153.31C151.316 152.854 152.477 153.154 152.829 152.502C154.381 149.632 153.429 146.918 157.303 146.618C157.199 144.753 157.407 146.071 158.36 145.457C158.164 150.284 166.343 140.135 166.395 140.083L166.369 140.122ZM82.9225 116.511C84.527 119.029 91.9103 118.116 94.6236 117.672C95.328 119.486 99.6979 118.377 99.5023 115.963C99.0979 116.159 98.6935 116.316 98.3022 116.511C98.1456 116.107 98.0543 115.755 97.8978 115.35C99.6588 115.05 99.5544 114.594 99.15 113.041C101.315 113.642 103.168 113.342 101.668 111.333C101.42 110.98 103.977 111.228 103.977 110.928C103.977 108.815 100.063 109.467 99.0587 110.38L98.7587 109.624C101.276 107.863 103.99 110.276 106.351 108.163C105.894 107.811 105.451 107.511 104.994 107.158C106.546 107.615 108.06 107.967 109.821 107.263C109.064 106.663 109.168 106.206 108.164 105.802C111.777 106.65 116.056 102.736 119.421 101.836C118.313 100.727 115.456 101.784 113.59 101.588C115.104 99.6316 123.491 101.536 123.987 98.8228C124.339 97.0096 116.747 96.6574 114.895 97.1662C114.191 96.4617 111.282 95.653 109.468 95.4573C108.764 98.0141 100.52 94.2963 101.133 97.2183C98.8761 96.3704 93.8017 95.9139 92.0407 98.3793C93.9452 98.275 96.0585 98.6793 97.0107 100.245C95.1062 99.736 92.4842 98.4837 90.8276 98.1836C89.0665 97.8314 87.6186 98.7315 87.1098 98.8359C85.2966 99.0837 81.5789 100.036 79.3222 100.545C79.3222 100.74 79.3222 101.001 79.27 101.249C81.1745 101.797 81.2789 102.906 83.3921 103.558C86.4054 104.458 86.5098 102.854 89.1187 102.501C83.8878 105.567 92.0277 104.51 93.4365 104.158C96.3455 103.454 98.3543 101.745 101.42 101.849C100.22 101.954 99.0066 102.501 98.0543 103.362C99.2153 103.167 100.115 103.519 101.224 103.519C99.6718 104.68 94.741 105.071 92.4843 105.176V105.984C93.9974 106.584 94.8453 107.693 96.6585 107.641C94.0496 108.345 90.1232 105.776 87.2142 105.436C87.4621 107.954 91.8842 109.963 94.4018 109.806C93.8539 110.459 93.593 111.007 93.0974 111.567C88.7274 107.25 82.192 113.929 90.2797 112.468C89.8753 112.715 89.4318 112.924 88.9752 113.172C89.9275 114.724 91.6885 114.229 92.9408 112.872C91.4798 116.837 87.1098 113.068 84.3966 113.42C85.5054 115.129 84.4487 115.833 82.9356 116.537L82.9225 116.511ZM83.6269 111.541C84.0313 110.993 84.827 111.346 84.5792 109.937C89.4579 110.693 88.3491 107.68 85.2836 105.763C85.4793 105.867 75.4349 100.793 75.6827 102.293C76.3871 102.449 77.0394 101.94 77.1959 102.841C77.1959 102.945 74.5348 103.297 74.2348 103.245C74.8348 103.702 75.0435 104.302 75.2914 104.549C74.5348 104.445 73.9348 104.706 73.2303 104.654C72.9825 105.163 72.7216 106.31 72.6825 107.015C74.5479 108.88 77.209 107.315 79.1657 108.919C78.0047 109.024 76.8046 109.624 75.6958 109.767C77.9525 111.776 80.9658 112.533 83.64 111.528L83.6269 111.541ZM79.6092 114.15C79.4135 114.502 79.1526 114.855 78.9569 115.207C80.2614 115.611 81.2137 115.507 82.3746 114.959C81.6702 113.655 80.9658 113.902 79.6092 114.15ZM80.8615 123.399C82.3746 123.099 99.2544 124.456 96.789 120.581C95.2758 118.22 88.5969 120.738 86.5881 120.686C82.2703 120.581 81.7094 116.159 77.9003 117.268C79.3092 119.733 77.796 122.342 80.8615 123.399ZM70.204 123.699H71.3128C70.804 122.538 70.804 123.451 70.204 123.699ZM72.5651 121.794C73.3738 122.499 77.5351 124.403 77.0916 121.69C76.7393 119.486 73.3216 120.529 72.5651 121.794ZM76.335 118.481C78.0438 116.72 75.5784 115.468 73.7782 115.768C70.0605 116.316 74.6261 118.533 76.335 118.481ZM73.2173 114.816C74.5739 114.816 75.9306 114.659 77.235 114.307V113.55C75.5784 113.302 73.713 113.146 73.2173 114.803V114.816ZM73.5173 112.911C77.3394 112.011 70.9606 110.25 69.7474 110.654C70.2953 112.468 71.5084 113.563 73.5173 112.911ZM69.2517 107.184C68.7038 106.128 68.2995 105.58 66.8906 105.828V106.728C67.8951 107.184 68.2995 107.38 69.2517 107.184ZM68.2473 113.772C69.3561 109.95 61.8163 108.098 58.9465 109.206C60.0553 109.663 60.6031 110.511 61.4119 111.163H60.1596C61.2684 112.715 66.0819 112.924 68.2473 113.772ZM65.3383 113.929C64.3861 113.576 64.086 113.028 62.8729 113.328C63.3294 114.633 64.073 114.229 65.3383 113.929ZM64.6339 120.607C66.1862 119.799 67.1515 120.412 67.5037 122.212C69.5126 122.108 71.0649 121.403 70.8171 119.199C70.5171 116.837 68.1038 117.842 65.9384 116.994C66.695 117.503 67.4907 118.298 67.9473 119.159C67.8429 119.003 64.8818 117.855 64.3339 117.751C64.4904 118.403 64.4904 119.003 64.7383 119.655C63.3294 118.599 62.6772 116.785 60.6684 116.59C60.4727 118.899 62.5729 120.06 64.6339 120.607ZM60.2118 121.207C60.3683 121.312 61.8685 123.073 61.8685 121.26C61.8685 120.255 60.4075 121.207 60.2118 121.207ZM60.7597 115.481C60.1596 114.581 59.5074 113.929 58.5551 113.472C58.6073 115.024 59.3639 115.885 60.7597 115.481ZM100.598 142.914C101.707 143.214 104.72 142.862 103.664 141.101C102.711 139.587 99.2935 140.748 100.598 142.914ZM75.8784 129.947C76.335 129.139 77.0785 129.439 77.0394 128.238C79.1526 128.995 80.0527 127.078 81.1615 125.577C79.6092 124.977 76.2828 123.869 74.887 124.873C73.6347 125.773 73.126 130.756 75.8914 129.947H75.8784ZM69.1474 132.361C72.6694 132.361 73.3738 129.152 69.9953 127.638C72.552 126.791 70.5431 125.225 69.0952 124.73C68.8473 124.677 66.7341 125.786 65.534 125.577C67.6994 127.782 66.0427 129.243 63.6686 127.938C63.773 129.452 67.7385 131.604 69.1474 132.361ZM60.6031 127.534C61.2032 125.421 58.5421 125.016 57.2898 126.177C58.4899 127.286 59.3508 128.043 60.6031 127.534ZM55.5288 125.773C55.6853 125.93 56.481 126.882 55.5288 125.773V125.773ZM48.0933 111.854H53.5721C52.6198 109.846 49.6065 110.393 48.0933 111.854ZM49.6456 115.22C51.1979 115.22 53.1155 115.024 51.811 113.563C52.4111 113.263 52.6589 113.511 53.1155 112.755C51.3023 112.598 49.5543 112.702 48.0411 113.655C48.3412 114.711 48.889 114.855 49.6456 115.207V115.22ZM46.9845 113.863C46.4758 112.859 46.3845 112.207 44.9235 112.454C45.2235 113.707 45.8757 113.615 46.9845 113.863ZM45.4322 117.685C43.2668 118.285 41.1144 120.555 42.6146 121.755C43.9712 122.864 48.9412 121.755 50.6501 121.912C50.05 122.564 46.4758 121.912 46.7367 123.164C47.0367 124.573 49.6978 123.673 50.6109 123.516C52.4763 123.164 59.5074 122.264 58.9465 119.642C59.1421 120.647 54.3808 117.033 54.7722 117.124C52.5676 116.472 51.7067 117.777 52.8676 119.786C53.272 119.981 53.9764 119.681 54.1199 120.242C54.3156 121.051 46.5801 118.077 45.4322 117.685ZM45.8888 116.224C46.3975 116.42 46.541 117.229 47.7541 116.981C47.7541 116.733 47.702 116.472 47.6498 116.224C47.1019 116.381 46.4888 116.381 45.8888 116.224ZM39.8099 119.486C39.5621 119.786 39.2621 120.086 39.0012 120.386C40.71 120.386 40.3578 120.686 41.2579 119.133C40.7492 119.238 40.3057 119.381 39.7969 119.486H39.8099ZM42.2232 117.581C43.5277 117.124 44.1799 116.12 44.3886 114.672C39.7708 113.563 38.2576 117.79 34.0442 118.285C36.0531 121.299 39.0142 118.533 40.7753 116.877C41.2318 118.233 41.7797 117.281 42.2363 117.581H42.2232ZM43.2798 137.526C46.5932 137.278 46.6975 138.987 49.2543 139.692C51.811 140.396 53.7808 138.583 56.0897 138.139C57.4463 137.892 66.5384 139.392 63.3295 136.887C64.6339 136.887 65.0383 136.235 65.7949 135.883C62.9773 133.926 61.8293 133.926 60.4205 131.265C59.8726 130.208 57.5115 125.134 55.5418 127.547C54.6417 128.708 57.9029 131.317 55.4896 131.161C54.2373 131.004 54.3286 127.743 52.0197 127.638C52.3198 128.095 52.5285 128.643 52.7763 129.152C51.8241 129.556 51.3675 129.699 50.3631 129.908C50.6109 129.504 50.7153 128.852 50.8718 128.395C49.163 127.743 47.5585 128.095 46.6062 128.695C47.3628 125.825 44.6495 127.182 43.2407 127.795C40.7231 128.956 40.6318 129.504 39.523 131.461C41.1796 132.113 42.9929 131.004 44.5452 132.217C43.2929 132.321 42.0797 132.765 41.1796 133.522C42.8885 134.422 48.3672 133.013 49.2673 134.578C49.6195 135.126 43.2407 135.426 42.2363 136.039C42.5885 136.548 42.9929 137.044 43.2929 137.552L43.2798 137.526ZM56.0897 140.54C57.4463 140.135 58.2942 139.887 58.6073 138.674C57.1985 138.922 55.7896 139.483 54.5374 140.227C55.0852 140.331 55.594 140.422 56.0897 140.527V140.54ZM34.7356 132.256C37.4489 132.661 38.5577 129.086 40.9188 127.886C44.6887 125.93 45.6409 125.33 40.7622 124.325C39.5099 124.077 33.1702 122.564 31.8658 123.673C31.1614 124.273 30.9135 128.799 29.309 130.613C31.07 130.717 32.7267 131.669 33.4311 133.378C33.8877 133.026 34.3312 132.622 34.7356 132.269V132.256ZM286.249 288.805C286.249 285.844 288.363 279.765 284.893 278.409C284.893 279.465 283.536 281.826 282.884 282.426C281.579 283.587 279.623 283.078 278.318 284.383C277.262 285.335 278.423 288.401 278.318 289.262C278.07 290.814 277.418 290.971 277.066 292.927C276.662 295.445 277.262 299.163 280.588 298.406C283.849 297.702 282.793 296.749 283.354 293.84C283.406 293.488 284.201 290.227 284.306 290.175C284.554 289.823 286.263 289.327 286.263 288.818L286.249 288.805ZM260.825 215.807C259.364 212.337 258.569 213.694 255.347 213.29C250.729 212.742 247.155 211.229 242.785 210.276C242.785 214.451 242.889 213.694 240.071 213.694C240.619 213.694 237.554 212.794 237.867 212.937H235.61C235.414 212.533 235.258 212.129 235.154 211.737C233.797 211.281 229.727 210.576 228.879 209.481C227.327 207.367 230.64 206.963 227.822 205.163C228.579 204.511 228.475 204.458 229.531 204.211C228.07 201.745 224.105 204.054 221.992 204.106C219.787 204.158 217.374 203.154 214.504 204.406C212.599 205.215 211.295 206.363 208.725 206.272C205.607 206.219 203.951 204.106 203.951 208.137H201.642C202.698 211.855 199.985 209.441 199.385 210.655C198.433 212.611 198.733 214.92 197.872 216.186C197.324 216.942 195.315 217.947 194.506 218.951C193.606 220.008 192.55 221.821 191.597 223.217C190.645 224.625 186.771 228.239 187.332 230.404C187.488 231.004 189.641 230.156 189.993 230.861C190.293 231.461 189.536 231.709 189.693 232.061C190.293 233.665 189.289 236.287 189.145 237.892C188.989 239.849 188.845 241.505 191.01 243.775C193.319 246.188 195.433 248.197 198.042 250.454C198.889 251.21 199.346 252.971 201.251 253.363C203.364 253.767 203.612 252.854 205.673 252.554C207.434 252.358 208.738 253.154 209.938 253.102C212.495 252.998 212.299 252.045 214.36 251.341C216.069 250.793 219.683 250.936 220.635 251.341C222.148 251.993 221.796 253.154 224.053 253.65C227.966 254.498 227.718 252.541 227.822 256.715C227.875 258.62 227.066 261.085 226.009 262.194C230.888 263.746 234.097 273.804 233.34 278.578C232.532 283.352 229.623 283.548 232.14 288.675C233.653 291.844 234.149 293.749 235.01 297.219C235.91 300.832 238.728 303.298 239.784 306.559C240.632 309.324 239.276 310.224 240.684 311.738C244.402 315.807 254.147 311.033 257.069 307.915C258.177 306.715 260.082 304.654 260.682 303.193C261.334 301.785 260.486 299.776 260.838 298.876C261.191 298.223 263.604 297.767 264.4 296.762C266.461 294.049 263.343 292.888 263.943 290.031C264.4 287.722 268.665 286.561 269.865 285.466C272.931 282.752 273.074 279.687 272.331 275.617C271.874 273.308 269.774 269.89 270.674 267.073C271.835 263.303 276.649 259.689 279.518 257.172C281.632 255.267 283.745 253.154 285.193 250.584C286.145 248.875 286.745 248.719 287.006 246.41C287.41 242.849 287.958 243.697 284.893 243.697C280.575 243.645 279.31 245.301 276.296 242.04C274.588 240.135 271.822 238.322 270.165 236.209C268.561 234.096 266.904 229.321 265.9 226.869C264.387 223.099 263.539 219.186 260.825 215.82C260.721 215.572 261.021 216.068 260.825 215.82V215.807ZM286.849 137.983C285.493 137.787 283.288 136.222 284.293 139.392C285.141 139.392 286.706 138.935 286.849 137.983C286.745 137.983 286.797 138.087 286.849 137.983ZM300.559 106.128C300.103 106.232 299.751 106.323 299.307 106.323C299.503 107.38 300.207 106.832 301.068 106.624C301.016 106.219 301.068 105.971 300.559 106.115C300.403 106.167 300.664 106.115 300.559 106.115V106.128ZM295.185 105.671C295.889 106.271 295.994 107.224 297.09 105.828C297.09 107.537 299.294 105.932 299.607 105.671C299.659 105.476 299.607 105.267 299.503 105.071C298.146 104.771 296.033 105.371 295.185 105.671ZM290.815 105.828C292.067 104.523 294.781 103.962 296.698 104.419C296.242 101.654 299.216 105.371 299.607 102.867C298.955 102.867 298.355 102.971 297.703 102.867C297.951 102.462 298.459 101.562 298.603 101.406C297.598 101.406 296.894 102.058 296.346 102.214C296.698 102.11 294.481 102.723 294.285 102.867C293.685 103.167 293.528 103.975 292.733 104.523C291.676 105.28 291.18 104.68 290.828 105.828H290.815ZM284.736 103.767C282.48 103.767 281.866 104.576 279.766 104.119C279.871 105.776 282.675 104.667 283.993 104.667C281.279 106.571 285.806 107.08 287.11 105.371C289.224 102.501 287.215 103.767 284.749 103.767H284.736ZM240.932 106.323C241.389 107.628 244.193 105.919 244.702 107.328C243.946 107.276 243.189 107.38 242.446 107.328C243.802 111.202 251.433 107.784 253.194 106.728C251.485 104.823 249.072 106.428 247.572 105.971C247.82 105.371 248.224 105.463 248.12 104.81C246.307 105.515 246.763 104.915 245.707 106.715C245.054 104.954 240.124 104.549 240.932 106.31C240.985 106.467 240.828 106.154 240.932 106.31V106.323ZM237.815 112.154C237.815 112.559 233.745 112.311 233.249 114.02C234.253 113.772 237.371 113.068 237.776 113.615C237.123 114.02 233.81 114.568 233.758 114.816C233.653 115.363 236.667 116.824 237.319 117.685C239.276 116.172 241.193 113.263 241.193 111.202C241.741 111.098 242.798 111.098 243.359 111.202C243.111 113.068 243.554 111.75 244.363 112.807C244.963 113.615 243.763 114.268 243.763 115.063C245.876 113.759 246.072 115.52 246.881 115.363C247.729 115.207 249.242 114.359 250.09 114.163C249.19 112.911 248.224 114.32 248.224 112.559C247.324 112.663 241.245 109.037 241.037 108.489C240.789 108.593 240.332 108.737 239.837 108.489C240.032 108.032 240.293 107.732 240.384 107.289C238.076 106.18 238.023 107.445 236.915 107.745C237.462 107.589 236.106 109.05 235.962 109.102C236.315 108.945 235.414 107.237 235.258 107.237C235.454 107.289 232.701 108.293 232.74 108.241C233.04 107.784 233.145 107.289 233.393 106.884C232.036 107.184 226.361 108.541 230.875 109.193C230.875 109.741 230.979 111.202 230.771 111.711C229.962 111.307 230.066 110.55 229.01 110.302C229.414 111.15 231.071 113.824 231.071 111.411C232.023 111.515 232.127 112.924 233.484 112.468C233.993 112.311 234.293 111.307 234.84 111.267C234.893 111.267 237.658 111.02 237.802 112.168C237.802 112.22 237.802 111.92 237.802 112.168L237.815 112.154ZM204.107 163.055C203.403 163.355 202.646 164.163 202.503 164.868C203.155 164.672 205.268 162.859 204.107 163.055C203.859 163.159 204.212 163.055 204.107 163.055ZM205.712 180.234C207.264 180.234 208.425 179.126 209.325 178.982C210.682 178.787 212.586 179.439 213.695 178.93C215.6 178.03 216.252 176.165 215.704 174.404C215.404 173.295 214.543 175.056 214.504 175.004C213.995 174.495 214.1 173.595 213.695 173.243C212.991 172.642 212.038 171.234 211.138 170.177C209.782 168.573 209.586 168.977 209.377 167.659C209.273 166.812 212.795 163.433 207.564 164.998C207.969 164.242 208.073 163.642 208.869 163.133C207.16 161.424 206.403 164.085 205.751 164.594C205.647 164.698 202.138 165.898 204.903 166.355C204.655 167.164 203.742 168.312 203.794 168.82C204.694 168.925 205.855 169.629 206.103 168.664C205.855 171.625 207.46 169.968 208.569 172.382C209.821 175.199 207.212 173.282 205.855 174.938C206.403 175.043 206.808 174.991 207.408 175.095C207.408 175.904 205.347 176.256 205.999 177.052C206.455 177.56 208.608 176.804 209.312 177.508C209.012 177.756 204.786 180.221 205.699 180.221L205.712 180.234ZM204.407 172.342C207.825 171.834 199.033 167.464 201.094 171.534C199.437 171.834 197.272 174.09 199.933 173.999C196.463 178.969 201.29 175.656 204.199 176.308C204.303 175.108 204.446 173.79 204.394 172.342H204.407ZM105.333 332.909C104.733 332.753 104.785 331.8 104.329 331.8C104.524 331.8 102.972 333.613 102.972 333.613C102.972 333.861 105.79 336.079 106.038 336.17C105.881 336.366 105.842 336.575 105.881 336.822C100.963 336.822 104.877 341.088 104.12 342.901C104.524 342.849 104.877 342.849 105.32 342.901C105.32 343.358 105.124 343.553 104.616 343.606C105.425 344.454 105.02 343.958 105.777 344.154C105.529 344.049 109.038 348.523 109.599 348.876C112.508 350.689 115.325 349.776 118.091 349.58C117.987 348.68 114.478 347.676 113.721 345.915C113.069 344.258 111.464 339.94 114.269 340.188C114.269 338.427 117.83 336.47 117.53 335.166C117.282 333.653 113.708 334.566 114.973 331.605C115.325 330.652 117.282 331.148 117.687 330.652C118.091 330.196 117.582 329.4 118.091 328.839C117.739 329.243 119.904 325.474 119.643 326.882C120.1 324.417 117.778 326.935 118.287 323.321C121.9 324.73 122.604 323.426 122.056 320.112C125.018 320.217 128.592 320.308 129.948 317.399C131.462 314.386 128.644 315.038 128.083 312.377C131.396 312.833 132.649 313.981 135.219 311.725C136.419 310.616 137.384 306.298 138.741 306.494C138.545 307.094 138.441 307.146 138.584 307.694C142.497 305.737 141.402 300.206 143.554 297.649C144.963 295.941 146.867 295.132 148.876 294.584C151.994 293.684 152.842 293.879 154.603 290.814C156.716 287.201 155.855 281.67 157.512 278.761C158.764 276.595 161.425 275.343 162.13 272.878C162.638 271.273 162.534 271.364 162.13 269.864C161.23 266.603 161.282 268.755 159.221 267.151C157.016 265.39 156.103 265.038 153.338 264.49C151.877 264.19 146.606 264.594 148.811 263.433C148.002 262.885 146.646 262.077 145.602 261.829C142.941 261.32 143.541 261.933 141.636 262.729C141.793 262.481 142.589 260.72 142.641 260.563C141.884 260.459 140.932 260.107 140.228 259.911C139.523 259.716 139.928 261.464 138.467 261.268C138.767 260.616 141.584 257.146 138.923 257.146C139.38 252.476 135.101 252.228 132.244 251.523C129.935 250.976 124.757 248.615 124.757 245.993C123.452 246.449 121.143 245.836 123.152 244.936C121.796 243.175 118.978 245.64 118.182 245.588C115.273 245.484 113.864 243.031 111.099 242.523C111.099 244.036 110.042 243.684 109.194 244.584C109.038 244.74 109.442 246.788 109.351 247.14C107.746 245.836 108.151 243.071 109.808 242.066C107.199 241.362 99.9588 246.136 99.5544 249.397C99.3066 251.21 101.211 253.115 99.9588 255.58C99.3066 256.989 96.489 259.807 94.9888 260.303C95.2888 262.664 94.2844 263.068 96.6977 263.264C95.6932 264.973 93.3843 265.977 94.6888 268.795C95.041 269.551 96.5542 269.695 97.1542 270.556C97.7543 271.456 98.4065 272.76 98.8109 273.725C99.6197 275.787 100.415 279.204 101.72 280.757C103.585 282.87 105.738 283.47 108.047 285.231C111.869 288.296 110.46 294.727 109.86 299.45C109.508 302.058 108.555 304.524 108.255 306.937C107.903 309.755 108.255 312.716 107.094 315.377C105.842 318.338 105.894 320.099 105.138 323.413C105.138 323.217 105.085 325.617 105.138 325.017C105.085 325.526 104.081 326.021 104.29 326.674C105.398 329.883 106.299 325.121 107.407 325.017C106.599 327.222 106.299 329.139 105.998 331.696C105.398 330.639 105.242 331.239 105.046 329.83C104.342 330.183 105.398 332.296 105.346 332.896L105.333 332.909ZM55.5418 125.76C55.6983 125.917 56.4941 126.869 55.5418 125.76V125.76Z" fill="#5163A2"/>
<path fill-rule="evenodd" clip-rule="evenodd" d="M177.627 312.299C179.988 312.299 181.344 311.294 182.701 309.533C184.058 311.294 185.414 312.299 187.775 312.299C190.437 312.299 192.654 310.642 193.359 308.385C193.515 308.894 193.606 309.39 193.606 309.937C193.606 312.899 190.489 315.364 187.775 315.364C185.062 315.364 183.705 314.764 182.701 313.159C181.697 314.764 179.792 315.364 177.627 315.364C175.461 315.364 173.713 314.712 172.709 313.107C171.704 314.712 170.296 315.364 167.634 315.364C164.973 315.364 161.856 312.899 161.856 309.937C161.856 309.39 161.908 308.881 162.051 308.385C162.756 310.642 165.013 312.299 167.634 312.299C169.996 312.299 171.3 311.346 172.657 309.637C174.013 311.346 175.318 312.299 177.627 312.299Z" fill="#5163A2"/>
<path fill-rule="evenodd" clip-rule="evenodd" d="M151.903 230.404C154.264 230.404 155.673 229.4 156.977 227.639C158.334 229.4 159.69 230.404 162.052 230.404C164.713 230.404 166.93 228.748 167.635 226.491C167.791 227 167.883 227.495 167.883 228.043C167.883 231.004 164.765 233.47 162.052 233.47C159.338 233.47 157.982 232.87 156.977 231.265C156.025 232.87 154.068 233.47 151.903 233.47C149.737 233.47 147.989 232.817 146.985 231.213C145.981 232.817 144.572 233.47 141.911 233.47C139.249 233.47 136.132 231.004 136.132 228.043C136.132 227.495 136.184 226.986 136.327 226.491C137.084 228.748 139.289 230.404 141.911 230.404C144.272 230.404 145.576 229.452 146.933 227.743C148.289 229.452 149.594 230.404 151.903 230.404Z" fill="#5163A2"/>
<path fill-rule="evenodd" clip-rule="evenodd" d="M61.4643 260.446C63.7732 260.446 65.182 259.442 66.4865 257.681C67.8431 259.442 69.1997 260.446 71.5608 260.446C74.2219 260.446 76.4395 258.789 77.1439 256.533C77.3005 257.041 77.3918 257.537 77.3918 258.085C77.3918 261.046 74.2741 263.512 71.5608 263.512C68.8475 263.512 67.4909 262.911 66.4865 261.255C65.5342 262.911 63.5775 263.512 61.4643 263.512C59.351 263.512 57.4987 262.859 56.4943 261.255C55.4898 262.859 54.1332 263.512 51.4199 263.512C48.7066 263.512 45.6411 261.046 45.6411 258.085C45.6411 257.537 45.7455 257.028 45.889 256.533C46.5934 258.789 48.7979 260.446 51.4199 260.446C53.781 260.446 55.0854 259.442 56.4421 257.785C57.7987 259.442 59.1032 260.446 61.4643 260.446Z" fill="#5163A2"/>
<path fill-rule="evenodd" clip-rule="evenodd" d="M209.078 64.7633C211.386 64.7633 212.795 63.7589 214.1 61.9978C215.456 63.7589 216.813 64.7633 219.174 64.7633C221.835 64.7633 224.053 63.1066 224.757 60.889C224.914 61.3456 225.005 61.8935 225.005 62.4022C225.005 65.4155 221.887 67.8288 219.174 67.8288C216.461 67.8288 215.104 67.2809 214.1 65.6243C213.147 67.2809 211.191 67.8288 209.078 67.8288C206.964 67.8288 205.112 67.1766 204.108 65.5721C203.103 67.1766 201.746 67.8288 199.033 67.8288C196.32 67.8288 193.254 65.4155 193.254 62.4022C193.254 61.8935 193.307 61.3456 193.502 60.889C194.207 63.0936 196.411 64.7633 199.033 64.7633C201.394 64.7633 202.699 63.811 204.055 62.1022C205.412 63.811 206.716 64.7633 209.078 64.7633Z" fill="#5163A2"/>
<path fill-rule="evenodd" clip-rule="evenodd" d="M142.602 50.5968C144.963 50.5968 146.32 49.5924 147.676 47.8313C149.033 49.5924 150.39 50.5968 152.751 50.5968C155.36 50.5968 157.629 48.9923 158.334 46.7225C158.49 47.1791 158.582 47.727 158.582 48.2357C158.582 51.249 155.464 53.6623 152.751 53.6623C150.037 53.6623 148.681 53.1144 147.676 51.4577C146.672 53.1144 144.767 53.6623 142.602 53.6623C140.437 53.6623 138.689 53.0101 137.684 51.4577C136.628 53.0101 135.271 53.6623 132.61 53.6623C129.949 53.6623 126.831 51.249 126.831 48.2357C126.831 47.727 126.883 47.1791 127.027 46.7225C127.731 48.9793 129.988 50.5968 132.61 50.5968C134.971 50.5968 136.275 49.6445 137.632 47.9357C138.989 49.6445 140.293 50.5968 142.602 50.5968Z" fill="#5163A2"/>
<path fill-rule="evenodd" clip-rule="evenodd" d="M92.9668 74.1032C95.3279 74.1032 96.6845 73.0988 98.0412 71.3377C99.3978 73.0988 100.754 74.1032 103.116 74.1032C105.724 74.1032 107.942 72.4987 108.699 70.2289C108.855 70.7377 108.894 71.2334 108.894 71.7813C108.894 74.7424 105.777 77.1556 103.116 77.1556C100.454 77.1556 99.0456 76.6078 98.0412 74.9511C97.0367 76.6078 95.1322 77.3644 92.9668 77.1556C88.649 76.8034 87.8403 74.4424 87.7881 70.6725C89.1447 72.3813 90.6579 74.0902 92.9668 74.0902V74.1032Z" fill="#5163A2"/>
<path fill-rule="evenodd" clip-rule="evenodd" d="M163.76 182.269C166.069 182.269 167.478 181.265 168.782 179.504C170.139 181.265 171.496 182.269 173.857 182.269C176.518 182.269 178.736 180.613 179.44 178.395C179.596 178.852 179.688 179.347 179.688 179.908C179.688 182.87 176.57 185.335 173.857 185.335C171.144 185.335 169.787 184.735 168.782 183.13C167.83 184.735 165.873 185.491 163.76 185.335C159.442 184.931 158.634 182.569 158.582 178.8C159.938 180.508 161.399 182.269 163.76 182.269Z" fill="#5163A2"/>
<path fill-rule="evenodd" clip-rule="evenodd" d="M239.628 336.914C241.989 336.914 243.346 335.962 244.65 334.148C246.007 335.962 247.364 336.914 249.725 336.914C252.386 336.914 254.603 335.309 255.308 333.04C255.464 333.548 255.556 334.044 255.556 334.592C255.556 337.553 252.438 339.966 249.725 339.966C247.011 339.966 245.655 339.418 244.65 337.762C243.698 339.418 241.741 340.175 239.628 339.966C235.31 339.614 234.502 337.253 234.449 333.483C235.806 335.192 237.267 336.901 239.628 336.901V336.914Z" fill="#5163A2"/>
</svg>
