<svg width="95" height="83" viewBox="0 0 95 83" fill="none" xmlns="http://www.w3.org/2000/svg">
<rect width="95" height="83" rx="5" fill="url(#paint0_linear_222_12)"/>
<rect x="0.5" y="0.5" width="94" height="82" rx="4.5" stroke="url(#paint1_linear_222_12)" stroke-opacity="0.4"/>
<path d="M41.164 69.5L44.2832 47.5147L44.3641 46.9444H43.7882H32.5879C31.7076 46.9444 31.5552 46.6995 31.524 46.6164C31.4969 46.5439 31.4849 46.4212 31.5309 46.2277C31.5763 46.0363 31.6703 45.8104 31.8091 45.5604C31.8763 45.4393 31.9303 45.3424 31.9733 45.2655C31.9775 45.2605 31.9808 45.2563 31.9832 45.2533C31.9934 45.2402 32.0008 45.2294 32.0039 45.2248C32.0149 45.2087 32.0234 45.1939 32.0243 45.1924C32.034 45.1759 32.0476 45.151 32.0588 45.1303C32.0677 45.1139 32.0782 45.0945 32.0888 45.0746C34.5218 40.7451 37.6705 35.1738 41.5289 28.3466C44.1786 23.6582 47.163 18.3774 50.4802 12.5H52.8124L49.6933 34.4853L49.6124 35.0556H50.1883H61.3885C62.0594 35.0556 62.3182 35.2769 62.4151 35.4288C62.5263 35.6028 62.5198 35.8253 62.4447 35.9765L62.4446 35.9764L62.4389 35.9886L62.2236 36.4532C55.9245 47.545 51.2076 55.8687 48.0651 61.4202C46.493 64.1975 45.315 66.2809 44.5299 67.6701C44.1373 68.3647 43.8431 68.8857 43.6469 69.2331L43.4962 69.5H41.164Z" fill="#FFAB39" stroke="#FFAB39"/>
<defs>
<linearGradient id="paint0_linear_222_12" x1="23.5" y1="3.88827e-06" x2="88.5" y2="83" gradientUnits="userSpaceOnUse">
<stop stop-color="#7AE6B2"/>
<stop offset="1" stop-color="#07FBFC"/>
</linearGradient>
<linearGradient id="paint1_linear_222_12" x1="3.16667" y1="-1.50722e-06" x2="115.258" y2="75.3351" gradientUnits="userSpaceOnUse">
<stop stop-color="#44ED98"/>
<stop offset="1" stop-color="#07FBFC"/>
</linearGradient>
</defs>
</svg>
