<svg width="25" height="43" viewBox="0 0 25 43" fill="none" xmlns="http://www.w3.org/2000/svg">
<path d="M11.413 43L0 23.1261V20.4762H1.3285C3.46216 20.4762 5.25362 20.2754 6.7029 19.874C8.19243 19.4725 9.3599 18.81 10.2053 17.8866C11.0507 16.9631 11.5539 15.6984 11.715 14.0924H0V10.2381H11.6546C11.3728 8.75257 10.8092 7.54809 9.96377 6.62465C9.11836 5.66107 7.97101 4.95845 6.52174 4.51681C5.11272 4.07516 3.38164 3.85434 1.3285 3.85434H0V0H25V3.85434H13.587C14.5129 4.61718 15.2778 5.52054 15.8816 6.56443C16.4855 7.60831 16.868 8.83287 17.029 10.2381H25V14.0924H17.1498C16.868 17.0233 15.7407 19.3119 13.7681 20.958C11.8357 22.564 9.25926 23.5878 6.03865 24.0294L17.5725 43H11.413Z" fill="url(#paint0_linear_146_679)"/>
<defs>
<linearGradient id="paint0_linear_146_679" x1="0.261685" y1="0.341235" x2="12.4392" y2="43.0173" gradientUnits="userSpaceOnUse">
<stop stop-color="#76CAFF"/>
<stop offset="1" stop-color="#2BACFF"/>
</linearGradient>
</defs>
</svg>
