<?xml version="1.0" standalone="no"?>
<!DOCTYPE svg PUBLIC "-//W3C//DTD SVG 20010904//EN"
 "http://www.w3.org/TR/2001/REC-SVG-20010904/DTD/svg10.dtd">
<svg version="1.0" xmlns="http://www.w3.org/2000/svg"
 width="233.000000pt" height="51.000000pt" viewBox="0 0 233.000000 51.000000"
 preserveAspectRatio="xMidYMid meet">

<g transform="translate(0.000000,51.000000) scale(0.100000,-0.100000)"
fill="#000000" stroke="none">
<path d="M0 255 l0 -255 1033 0 1032 0 -3 175 c-3 168 -2 175 17 175 11 0 21
-5 23 -10 2 -7 16 -5 36 6 93 46 199 -61 159 -159 -28 -66 -121 -99 -175 -61
l-22 15 0 -70 0 -71 115 0 115 0 0 255 0 255 -1165 0 -1165 0 0 -255z m189
147 c67 -70 24 -156 -84 -171 l-40 -6 -3 -57 c-2 -43 -7 -58 -17 -58 -13 0
-15 28 -15 166 l0 166 64 -4 c57 -3 69 -8 95 -36z m1501 -2 c0 -33 3 -40 20
-40 13 0 20 -7 20 -19 0 -10 -9 -21 -20 -24 -18 -5 -20 -14 -20 -106 0 -94 -1
-101 -20 -101 -19 0 -20 7 -20 105 0 87 -3 105 -15 105 -8 0 -15 9 -15 20 0
11 7 20 15 20 11 0 15 11 15 40 0 33 3 40 20 40 17 0 20 -7 20 -40z m310 20
c0 -21 -24 -28 -35 -10 -8 14 3 30 21 30 8 0 14 -9 14 -20z m-1562 -90 c87
-63 72 -168 -30 -211 -66 -27 -158 39 -158 115 0 42 31 89 71 109 48 23 70 21
117 -13z m156 -52 c42 -104 50 -110 71 -62 19 42 21 73 10 117 -5 20 -4 27 6
27 15 0 19 -8 66 -123 l27 -69 13 29 c59 135 74 163 89 163 8 0 14 -4 12 -8
-1 -5 -23 -61 -48 -125 -53 -137 -66 -145 -101 -62 -13 30 -27 55 -31 55 -3 0
-16 -25 -29 -55 -14 -34 -29 -55 -38 -55 -14 0 -46 70 -107 234 -5 14 -3 17
10 15 11 -3 30 -33 50 -81z m498 61 c24 -13 55 -60 59 -89 l4 -25 -102 -3
c-61 -2 -103 -7 -103 -13 0 -5 11 -21 25 -34 30 -31 82 -33 118 -5 26 21 42
14 31 -13 -7 -20 -64 -47 -98 -47 -31 0 -89 49 -106 90 -16 38 -7 71 31 114
39 45 86 53 141 25z m247 5 c8 -8 -21 -24 -46 -24 -38 0 -53 -36 -53 -127 0
-67 -3 -83 -15 -83 -12 0 -15 17 -15 96 0 93 1 96 30 126 26 25 36 29 62 24
17 -3 34 -9 37 -12z m206 -9 c14 -13 25 -29 25 -35 0 -16 -36 -12 -50 6 -8 9
-25 14 -44 12 -26 -2 -31 -7 -31 -28 0 -21 6 -26 46 -35 60 -13 79 -30 79 -70
0 -68 -95 -101 -145 -50 -14 13 -25 29 -25 35 0 15 36 12 50 -5 17 -20 66 -19
74 1 12 30 6 44 -18 44 -37 0 -86 20 -96 40 -27 51 13 110 75 110 25 0 44 -8
60 -25z m365 15 c13 -9 13 -11 0 -20 -8 -5 -27 -10 -42 -10 -38 0 -48 -25 -48
-124 0 -79 -2 -86 -20 -86 -19 0 -20 7 -20 96 0 92 1 97 29 125 30 30 72 38
101 19z m90 -115 c0 -118 -1 -125 -20 -125 -19 0 -20 7 -20 125 0 118 1 125
20 125 19 0 20 -7 20 -125z"/>
<path d="M67 403 c-4 -3 -7 -35 -7 -70 l0 -63 41 0 c60 0 79 14 79 59 0 24 -7
44 -17 53 -20 17 -86 32 -96 21z"/>
<path d="M323 175 c32 -29 63 -32 95 -9 37 26 25 34 -50 34 l-73 -1 28 -24z"/>
<path d="M1002 319 c-28 -8 -52 -38 -52 -65 0 -7 156 -5 163 2 11 11 -12 43
-43 59 -16 8 -30 15 -32 14 -2 0 -18 -5 -36 -10z"/>
<path d="M2145 308 c-77 -44 -49 -158 39 -158 61 0 96 58 70 118 -20 48 -66
65 -109 40z"/>
</g>
</svg>
