<svg width="70" height="66" viewBox="0 0 70 66" fill="none" xmlns="http://www.w3.org/2000/svg">
<path d="M67.4156 37.8019C67.7235 43.1137 65.2943 48.2199 60.9491 51.3384L63.5836 56.4446C64.3705 57.9868 64.4732 59.8031 63.7889 61.4137C63.1388 63.0244 61.8045 64.2924 60.1622 64.8407L57.4593 65.6975C56.3338 66.0772 55.1188 66.1 53.9799 65.7627C52.841 65.4254 51.8338 64.7444 51.0955 63.8126L43.8421 55.2452C40.7971 54.7311 37.9231 53.4289 35.4939 51.4755C33.7832 51.9896 32.0725 52.2637 30.3618 52.2637C27.351 52.2637 24.3401 51.3384 21.8083 49.5564C19.9949 50.1047 18.1474 50.3446 16.2656 50.3103C13.5627 50.3446 10.894 49.7963 8.39639 48.7682C5.99231 47.6938 3.93809 45.9642 2.46807 43.7768C0.998037 41.5894 0.171381 39.0321 0.0823894 36.3968C-0.191323 33.9294 0.219246 31.4277 1.27988 29.1659C0.287674 26.5957 0.185031 23.7855 1.04038 21.181C2.3063 17.9254 4.70128 15.2181 7.6779 13.5046C9.66231 7.71302 15.2392 3.84053 21.3635 4.25177C26.8377 -0.888694 35.2202 -1.43701 41.3103 2.98379C42.7473 2.60682 44.2527 2.4012 45.7581 2.4012C50.4112 2.29839 54.8248 4.35458 57.733 8.02145C64.7127 9.83774 69.7079 16.0748 69.9816 23.34C70.1527 27.144 69.1263 30.8794 67.0392 34.0665C67.2787 35.3002 67.4156 36.5339 67.4156 37.8019ZM50.3086 32.9698C52.2588 33.2097 53.7984 34.6833 53.7984 36.6367C53.7984 37.5456 53.4379 38.4173 52.7963 39.0599C52.1546 39.7026 51.2844 40.0637 50.377 40.0637H48.2215C47.1267 43.148 45.2107 45.8553 42.6788 47.9115C43.5342 48.2199 44.4238 48.3912 45.3133 48.6311C62.8651 48.3912 60.8123 37.6648 60.8123 37.4934C60.7215 35.1394 59.7008 32.918 57.9748 31.3177C56.2488 29.7174 53.9589 28.8694 51.6087 28.9603C50.7013 28.9603 49.831 28.5992 49.1894 27.9565C48.5478 27.3139 48.1873 26.4422 48.1873 25.5333C48.1873 24.6244 48.5478 23.7527 49.1894 23.1101C49.831 22.4674 50.7013 22.1063 51.6087 22.1063C55.817 22.2091 59.8543 23.7855 63.002 26.5614C63.173 25.5676 63.2757 24.5395 63.2757 23.5114C63.0704 19.2619 61.1544 15.5608 53.4563 14.8411C49.1795 4.69728 38.4021 10.3175 38.4021 13.4703C38.2994 14.2585 39.1206 15.9378 39.2574 16.0406C40.1648 16.0406 41.0351 16.4016 41.6767 17.0443C42.3184 17.687 42.6788 18.5587 42.6788 19.4675C42.6788 21.3524 41.1392 22.8945 39.2574 22.8945C37.4441 22.826 35.7334 22.1406 34.3648 20.9754C32.7226 22.0378 30.8408 22.6889 28.8906 22.8945C26.9404 23.0659 25.3323 21.6951 25.2297 19.8102C25.1667 19.3626 25.1956 18.9068 25.3149 18.4707C25.4341 18.0347 25.641 17.6277 25.923 17.2746C26.2049 16.9216 26.556 16.6301 26.9545 16.4178C27.353 16.2056 27.7907 16.0772 28.2405 16.0406C28.7879 15.972 31.4566 15.5608 31.4566 13.4018C31.4566 11.14 32.312 8.981 33.7832 7.26751C30.6355 6.41077 27.2483 7.54167 23.8269 11.6883C17.5315 10.6945 14.9655 11.5512 13.0837 18.2338C9.83338 19.8445 8.12268 20.9754 7.36997 24.4024C11.0651 23.6485 14.8628 23.9569 18.3869 25.2591C20.0976 25.9103 21.0556 27.8294 20.4055 29.6799C19.7554 31.462 17.771 32.353 15.9919 31.7019C13.4943 30.6052 10.6887 30.5367 8.12268 31.4962C7.02783 32.4215 7.02783 34.3406 7.02783 35.8485C7.02783 38.3845 8.29375 40.7491 10.4492 42.1199C12.2626 43.0452 14.2812 43.5249 16.2998 43.4907C15.7866 42.5996 15.3418 41.6744 14.9655 40.7148C14.6961 39.8343 14.7782 38.8835 15.1944 38.0624C15.6105 37.2413 16.3284 36.6138 17.197 36.312C18.0656 36.0101 19.0172 36.0574 19.8517 36.444C20.6862 36.8305 21.3385 37.5261 21.6714 38.3845C23.04 42.2912 26.5298 44.9643 30.6355 45.4098C35.3228 45.1699 39.4969 42.394 41.5498 38.1103C42.3367 33.3811 46.1345 32.9698 50.3086 32.9698ZM57.1514 58.5694L55.0301 54.1143L52.6009 54.6626L56.0223 58.9463L57.1514 58.5694ZM41.2419 29.0631C41.2716 28.1876 40.9655 27.334 40.3865 26.6775C39.8074 26.0211 38.9994 25.6116 38.1284 25.5333C35.6992 25.3962 33.3384 26.2187 31.5251 27.8294C29.5749 29.817 28.5485 32.5586 28.6511 35.3344C28.6511 36.2433 29.0116 37.115 29.6532 37.7577C30.2948 38.4004 31.1651 38.7614 32.0725 38.7614C34.0227 38.7614 35.4939 37.2193 35.4939 35.3344C35.4939 34.4092 35.7334 33.4839 36.2808 32.7299C36.6914 32.3873 37.2046 32.2159 37.752 32.2159C39.6338 32.3187 41.2419 30.9137 41.2419 29.0631Z" fill="white"/>
</svg>
