<svg width="535" height="511" viewBox="0 0 535 511" fill="none" xmlns="http://www.w3.org/2000/svg">
<path d="M350.173 73.5141C350.173 73.5141 323.072 51.2737 310.449 47.8709C297.776 44.4136 277.636 42.737 251.848 47.0061C226.075 51.2236 217.904 69.0729 217.904 69.0729C217.904 69.0729 201.884 76.635 186.465 79.6401C171.096 82.6996 153.212 85.6508 145.161 90.6836C137.098 95.7158 135.808 116.277 129.36 122.593C122.845 128.945 122.454 128.928 122.454 128.928C122.454 128.928 106.258 131.495 104.501 133.483C102.809 135.473 95.3589 154.163 88.6131 157.998C81.8544 161.833 69.3375 164.153 67.7126 173.994C66.0356 183.831 63.4968 194.886 63.7779 197.757C64.1089 200.683 69.7027 223.603 69.2594 233.899L68.8161 244.195C68.8161 244.195 67.4354 256.552 70.0045 264.51C72.5366 272.414 79.6802 279.354 79.6802 279.354C79.6802 279.354 85.4104 299.408 86.9421 302.347C88.4721 305.324 88.4382 320.064 90.2264 333.419C92.069 346.725 93.9464 360.437 99.7197 369.786C105.508 379.084 133.035 411.148 144.842 415.025C156.593 418.952 171.384 421.143 176.118 426.726C180.802 432.255 210.163 435.986 214.174 443.197C218.186 450.407 220.384 462.422 235.926 464.75C251.52 467.079 270.869 468.317 280.356 468.726C289.844 469.134 310.263 473.734 321.269 466.766C332.326 459.852 344.127 443.817 344.127 443.817C344.127 443.817 372.599 424.831 381.678 424.412C390.797 423.995 411.025 423.613 413.155 422.046C415.286 420.48 416.554 420.13 416.554 420.13C416.554 420.13 433.55 398.991 440.344 394.349C447.178 389.668 450.676 393.945 456.471 384.284C462.267 374.624 453.815 347.715 456.674 349.249C459.522 350.729 463.409 325.958 467.87 321.515C472.291 317.083 478.79 316.554 482.477 312.795C486.112 309.035 490.062 294.32 490.261 280.293C490.46 266.265 491.583 268.377 492.506 256.052C493.493 243.729 478.027 229.028 478.027 229.028C478.027 229.028 472.384 215.153 471.295 203.146C470.154 191.124 474.715 181.019 475.016 174.033C475.316 167.048 468.613 159.278 465.36 148.418C462.158 137.574 443.429 140.436 429.933 127.882C416.438 115.328 427.038 99.2941 417.233 87.7607C407.417 76.1745 397.258 72.8647 386.346 67.0155C375.486 61.1686 350.161 73.5005 350.161 73.5005L350.173 73.5141Z" fill="#2935BD"/>
<path fill-rule="evenodd" clip-rule="evenodd" d="M115.035 389.018L63.0393 394.144L107.052 342.239L124.036 353.249L115.035 389.018Z" fill="#5163A2"/>
<path fill-rule="evenodd" clip-rule="evenodd" d="M85.75 391.887L63.0393 394.144L74.3882 380.734C77.258 380.382 80.6626 379.925 81.1192 379.886C81.8758 379.782 75.1969 386.774 75.1969 386.774L81.928 387.022L76.8536 389.983L85.75 391.887Z" fill="#6874FF"/>
<path fill-rule="evenodd" clip-rule="evenodd" d="M448.939 136.356L501.144 136.304L452.305 183.63L436.482 171.068L448.939 136.356Z" fill="#5163A2"/>
<path fill-rule="evenodd" clip-rule="evenodd" d="M478.277 136.304H501.131L488.517 148.513C485.608 148.618 482.19 148.709 481.734 148.709C480.977 148.761 488.321 142.435 488.321 142.435L481.642 141.534L487.017 139.069L478.277 136.304Z" fill="#6874FF"/>
<path d="M255.565 420.768C255.565 420.768 247.426 481.152 251.496 499.493C253.361 507.828 262.701 510.894 269.236 510.646C277.076 510.398 282.346 505.115 284.968 495.931C289.69 479.156 291.047 429.965 292.404 432.834C293.812 435.704 255.579 420.781 255.579 420.781L255.565 420.768Z" fill="#5163A2"/>
<path d="M251.248 498.097C251.3 498.606 251.404 499.049 251.495 499.506C253.361 507.841 262.701 510.907 269.236 510.659C275.667 510.463 280.389 506.889 283.298 500.51C282.45 500.001 281.342 499.558 279.881 499.31C274.963 498.501 273.202 501.671 273.202 501.671C273.202 501.671 272.902 497.901 268.584 497.353C264.266 496.845 263.705 501.475 263.705 501.475C263.705 501.475 262.596 498.514 257.326 496.949C255.122 496.297 253.009 497.053 251.248 498.11V498.097Z" fill="#6874FF"/>
<path d="M284.003 449.806C282.803 463.072 276.463 498.188 296.265 499.297C300.139 499.493 303.505 497.588 304.405 491.561C306.114 480.408 304.757 442.722 304.757 442.722L284.003 449.806Z" fill="#5163A2"/>
<path d="M287.864 495.684C289.925 497.797 292.638 499.101 296.252 499.297C298.808 499.454 301.17 498.645 302.735 496.336C302.226 495.827 301.574 495.384 300.87 495.175C299.317 494.823 298.156 496.127 298.156 496.127C298.156 496.127 298 495.279 296.695 494.666C295.391 494.066 293.434 495.918 293.434 495.918C293.434 495.918 292.925 494.457 290.825 494.314C289.821 494.21 288.712 494.914 287.864 495.671V495.684Z" fill="#6874FF"/>
<path fill-rule="evenodd" clip-rule="evenodd" d="M107.705 142.891L86.3506 95.2129L149.5 120.533L144.478 140.126L107.705 142.891Z" fill="#5163A2"/>
<path fill-rule="evenodd" clip-rule="evenodd" d="M145.182 120.428L37.5632 148.266L60.4305 186.447L29.9321 207.24L95.1423 262.706L145.182 120.428Z" fill="#5163A2"/>
<path fill-rule="evenodd" clip-rule="evenodd" d="M43.4464 198.057L29.9321 207.24L37.3676 213.58L36.0631 209.654L41.881 210.867L38.3198 207.397L41.7897 205.845L38.2677 204.84L43.4464 198.057Z" fill="#6874FF"/>
<path fill-rule="evenodd" clip-rule="evenodd" d="M75.0929 138.56L37.5635 148.265L49.121 167.558L50.3733 160.775L58.3697 165.641L54.1954 156.105L63.0397 154.188L57.8609 150.026L75.0929 138.56Z" fill="#6874FF"/>
<path fill-rule="evenodd" clip-rule="evenodd" d="M95.6905 116.11L86.3506 95.2129L102.682 101.8C103.935 104.409 105.448 107.475 105.591 107.879C105.944 108.584 97.2037 104.409 97.2037 104.409L99.1083 110.945L94.6861 107.031L95.6905 116.123V116.11Z" fill="#6874FF"/>
<path fill-rule="evenodd" clip-rule="evenodd" d="M379.151 54.9179C382.712 56.5746 388.791 59.2357 388.999 58.7922C389.247 58.14 393.969 24.0282 393.526 23.2194C393.069 22.3715 392.926 22.0193 392.678 21.8628C392.43 21.7584 392.078 21.9671 391.126 22.2672C390.278 22.515 369.719 50.1566 369.419 50.8089C369.263 51.2654 375.446 53.5743 379.164 54.931L379.151 54.9179Z" fill="#5163A2"/>
<path fill-rule="evenodd" clip-rule="evenodd" d="M389.612 55.0092C389.665 54.4614 389.769 53.8483 389.86 53.2482L372.733 46.2171C372.328 46.7259 371.976 47.2216 371.624 47.6781L389.612 55.0092ZM378.511 53.6526L380.52 54.4614L377.859 60.8924L375.902 60.0836L378.511 53.6526ZM390.317 49.8827L390.565 48.0695L375.798 41.9907L374.741 43.5039L390.317 49.8827ZM391.073 44.704L391.269 42.8908L378.955 37.8164L377.846 39.2774L391.06 44.704H391.073ZM391.726 39.5252C391.83 38.9252 391.921 38.3251 391.973 37.712L382.073 33.6421C381.72 34.1508 381.368 34.5944 380.964 35.1031L391.713 39.5252H391.726ZM392.43 34.3465C392.482 33.6943 392.587 33.0942 392.626 32.5333L385.242 29.4678C384.89 29.9766 384.538 30.4201 384.134 30.9288L392.417 34.3465H392.43ZM393.03 29.1156C393.134 28.4634 393.187 27.8633 393.226 27.3024L388.451 25.3457C388.099 25.8023 387.747 26.2458 387.343 26.8067L393.017 29.1156H393.03Z" fill="#2935BD"/>
<path fill-rule="evenodd" clip-rule="evenodd" d="M57.3584 244.922C57.6341 241.004 57.949 234.376 57.4602 234.339C56.7624 234.341 23.2135 242.111 22.6165 242.814C21.9875 243.544 21.7098 243.803 21.6521 244.091C21.6431 244.36 21.9638 244.614 22.5841 245.396C23.1184 246.1 56.2789 255.432 56.9953 255.479C57.4776 255.462 57.4263 248.862 57.3659 244.905L57.3584 244.922Z" fill="#5163A2"/>
<path fill-rule="evenodd" clip-rule="evenodd" d="M53.7078 235.118C53.1774 235.265 52.5675 235.386 51.9744 235.515L51.5232 254.024C52.1428 254.22 52.7316 254.372 53.2838 254.538L53.7078 235.118ZM56.4048 245.971L56.4428 243.806L63.4001 243.995L63.3434 246.112L56.4048 245.971ZM48.6677 236.29L46.8856 236.706L46.4807 252.67L48.2714 253.117L48.6677 236.29ZM43.5603 237.433L41.7967 237.898L41.4543 251.212L43.215 251.726L43.5649 237.445L43.5603 237.433ZM38.4901 238.673C37.8923 238.79 37.2992 238.919 36.7079 239.089L36.4419 249.791C37.0429 249.938 37.583 250.108 38.2026 250.304L38.4947 238.685L38.4901 238.673ZM33.4013 239.864C32.7734 240.049 32.1756 240.165 31.6377 240.329L31.4109 248.32C32.0119 248.468 32.552 248.638 33.1716 248.834L33.4059 239.877L33.4013 239.864ZM28.301 241.172C27.6545 241.307 27.0754 241.473 26.5374 241.637L26.4147 246.795C26.9669 246.961 27.507 247.131 28.1753 247.309L28.3056 241.184L28.301 241.172Z" fill="#2935BD"/>
<path fill-rule="evenodd" clip-rule="evenodd" d="M492.623 257.185C492.157 261.787 491.546 269.58 492.12 269.64C492.941 269.664 532.72 261.731 533.449 260.925C534.216 260.09 534.552 259.794 534.631 259.458C534.651 259.141 534.282 258.83 533.581 257.887C532.977 257.039 494.275 244.851 493.433 244.769C492.865 244.771 492.686 252.543 492.614 257.204L492.623 257.185Z" fill="#5163A2"/>
<path fill-rule="evenodd" clip-rule="evenodd" d="M496.566 268.86C497.195 268.706 497.918 268.585 498.621 268.455L499.823 246.68C499.101 246.427 498.413 246.227 497.769 246.011L496.566 268.86ZM493.784 255.984L493.661 258.532L485.477 258.057L485.62 255.567L493.784 255.984ZM502.542 267.662L504.655 267.237L505.71 248.457L503.618 247.867L502.542 267.662ZM508.596 266.502L510.69 266.019L511.575 250.356L509.521 249.687L508.591 266.487L508.596 266.502ZM514.611 265.226C515.319 265.11 516.021 264.979 516.724 264.8L517.425 252.211C516.723 252.016 516.093 251.795 515.371 251.542L514.606 265.211L514.611 265.226ZM520.645 264.007C521.391 263.813 522.099 263.698 522.738 263.524L523.295 254.124C522.592 253.929 521.963 253.709 521.24 253.455L520.64 263.993L520.645 264.007ZM526.697 262.653C527.463 262.517 528.151 262.343 528.79 262.17L529.121 256.101C528.477 255.886 527.848 255.665 527.067 255.432L526.692 262.638L526.697 262.653Z" fill="#2935BD"/>
<path fill-rule="evenodd" clip-rule="evenodd" d="M131.968 84.751L135.385 82.703L140.107 90.3863L136.69 92.4995L131.968 84.751Z" fill="#86A1FF"/>
<path fill-rule="evenodd" clip-rule="evenodd" d="M136.898 88.821C136.898 88.821 142.573 84.9989 142.625 81.3855C142.729 77.7722 141.464 75.4633 139.012 72.1369C136.598 68.8757 130.219 66.2537 126.45 67.8713C122.68 69.4758 120.723 72.7891 120.919 76.9634C121.075 81.1377 123.984 87.06 126.541 89.2775C129.098 91.4821 136.885 88.821 136.885 88.821H136.898Z" fill="#5163A2"/>
<path fill-rule="evenodd" clip-rule="evenodd" d="M127.402 81.1899C126.802 80.9421 126.502 80.2898 126.75 79.6767C126.997 79.0767 127.702 78.7767 128.302 79.0245C128.302 79.0245 130.206 79.8724 132.567 78.4245C134.772 77.0678 134.524 75.0068 134.524 74.9546C134.472 74.3545 134.981 73.7545 135.633 73.7023C136.233 73.6501 136.833 74.1589 136.885 74.7589C136.885 74.8111 137.29 78.3201 133.768 80.4333C130.402 82.4944 127.389 81.1899 127.389 81.1899H127.402Z" fill="#86A1FF"/>
<path fill-rule="evenodd" clip-rule="evenodd" d="M401.001 61.7454L404.483 63.6812L400.19 71.6124L396.651 69.7092L401.001 61.7454Z" fill="#86A1FF"/>
<path fill-rule="evenodd" clip-rule="evenodd" d="M399.941 68.0506C399.941 68.0506 406.089 71.0538 409.244 69.2923C412.425 67.576 413.792 65.3257 415.447 61.5387C417.064 57.8182 416.146 50.9829 412.86 48.5269C409.585 46.0643 405.738 46.0264 402.22 48.283C398.684 50.5057 395.009 55.9861 394.367 59.3091C393.736 62.6256 399.935 68.0393 399.935 68.0393L399.941 68.0506Z" fill="#5163A2"/>
<path fill-rule="evenodd" clip-rule="evenodd" d="M401.802 56.0109C401.717 55.3673 402.131 54.7814 402.786 54.6895C403.43 54.6041 404.042 55.0641 404.127 55.7077C404.127 55.7077 404.345 57.781 406.78 59.1018C409.057 60.3327 410.718 59.0875 410.763 59.0614C411.257 58.7162 412.031 58.8567 412.402 59.3955C412.747 59.8891 412.607 60.6631 412.113 61.0083C412.068 61.0344 409.231 63.1391 405.64 61.1455C402.172 59.2614 401.795 55.9996 401.795 55.9996L401.802 56.0109Z" fill="#86A1FF"/>
<path fill-rule="evenodd" clip-rule="evenodd" d="M471.545 366.278L469.609 369.76L461.678 365.467L463.581 361.928L471.545 366.278Z" fill="#86A1FF"/>
<path fill-rule="evenodd" clip-rule="evenodd" d="M465.24 365.219C465.24 365.219 462.237 371.366 463.998 374.521C465.715 377.703 467.965 379.069 471.752 380.724C475.472 382.342 482.308 381.423 484.764 378.137C487.226 374.863 487.264 371.015 485.008 367.498C482.785 363.961 477.305 360.287 473.982 359.644C470.665 359.014 465.251 365.212 465.251 365.212L465.24 365.219Z" fill="#5163A2"/>
<path fill-rule="evenodd" clip-rule="evenodd" d="M477.28 367.079C477.923 366.994 478.509 367.409 478.601 368.063C478.687 368.707 478.227 369.319 477.583 369.404C477.583 369.404 475.51 369.622 474.189 372.057C472.958 374.334 474.203 375.995 474.229 376.04C474.574 376.534 474.434 377.308 473.895 377.679C473.402 378.024 472.628 377.884 472.282 377.39C472.256 377.345 470.152 374.508 472.145 370.917C474.029 367.45 477.291 367.073 477.291 367.073L477.28 367.079Z" fill="#86A1FF"/>
<path fill-rule="evenodd" clip-rule="evenodd" d="M75.7449 120.78C75.7449 120.78 79.4626 120.376 81.328 121.941C82.3324 122.841 82.2802 124.25 81.3802 125.359C80.5323 126.363 79.2147 127.068 77.9625 126.063C75.497 124.002 75.7579 120.793 75.7579 120.793L75.7449 120.78ZM92.6246 124.798C92.6246 124.798 96.3945 124.394 98.2078 125.959C99.2644 126.859 99.2122 128.268 98.2599 129.377C97.4512 130.381 96.0945 131.086 94.8422 130.081C92.3768 128.02 92.6377 124.811 92.6377 124.811L92.6246 124.798ZM87.9547 130.681C87.9547 130.681 91.6724 130.225 93.5378 131.842C94.5422 132.69 94.5422 134.099 93.5899 135.26C92.742 136.264 91.4245 136.969 90.1723 135.912C87.7068 133.851 87.9677 130.681 87.9677 130.681H87.9547ZM83.2847 136.512C83.2847 136.512 87.0024 136.108 88.8156 137.673C89.8722 138.573 89.8201 139.982 88.8678 141.091C88.059 142.095 86.7024 142.8 85.5023 141.795C83.0368 139.734 83.2977 136.525 83.2977 136.525L83.2847 136.512ZM79.4626 128.62C79.4626 128.62 83.2325 128.216 85.0457 129.781C86.1023 130.681 86.0501 132.09 85.0979 133.251C84.2891 134.256 82.9325 134.908 81.6802 133.903C79.2147 131.842 79.4756 128.633 79.4756 128.633L79.4626 128.62ZM84.2891 122.646C84.2891 122.646 88.0068 122.241 89.82 123.807C90.8767 124.707 90.8245 126.116 89.9244 127.277C89.0765 128.281 87.7199 128.933 86.5067 127.929C84.0413 125.868 84.3022 122.659 84.3022 122.659L84.2891 122.646Z" fill="#3059EB"/>
<path fill-rule="evenodd" clip-rule="evenodd" d="M92.9773 135.299L93.8904 134.138L98.5604 137.856L97.6081 139.017L92.9773 135.299Z" fill="#2935BD"/>
<path fill-rule="evenodd" clip-rule="evenodd" d="M87.5732 418.539C87.5732 418.539 85.7235 413.772 87.1308 410.754C87.964 409.109 89.8431 408.68 91.626 409.476C93.2526 410.24 94.6491 411.731 93.7657 413.74C91.9162 417.726 87.5858 418.517 87.5858 418.517L87.5732 418.539ZM86.906 394.824C86.906 394.824 85.0379 389.988 86.4636 387.04C87.2784 385.326 89.1575 384.896 90.9588 385.761C92.5716 386.474 93.982 388.016 93.0986 390.026C91.249 394.011 86.9187 394.802 86.9187 394.802L86.906 394.824ZM96.3284 398.91C96.3284 398.91 94.4098 394.161 95.886 391.125C96.6503 389.499 98.5109 389 100.381 389.847C102.008 390.611 103.404 392.102 102.452 394.13C100.602 398.115 96.3238 398.892 96.3238 398.892L96.3284 398.91ZM105.682 403.014C105.682 403.014 103.832 398.247 105.258 395.298C106.073 393.584 107.952 393.155 109.753 394.02C111.366 394.733 112.776 396.275 111.874 398.215C110.025 402.201 105.694 402.992 105.694 402.992L105.682 403.014ZM96.6115 410.854C96.6115 410.854 94.7434 406.019 96.1691 403.07C96.9839 401.356 98.863 400.926 100.733 401.773C102.346 402.486 103.687 404.047 102.804 406.056C100.955 410.041 96.6242 410.833 96.6242 410.833L96.6115 410.854ZM87.0132 406.594C87.0132 406.594 85.1635 401.827 86.5892 398.879C87.404 397.165 89.2831 396.735 91.1349 397.513C92.7615 398.277 94.103 399.838 93.2057 401.796C91.3562 405.781 87.0258 406.572 87.0258 406.572L87.0132 406.594Z" fill="#3059EB"/>
<path fill-rule="evenodd" clip-rule="evenodd" d="M100.65 390.642L98.7933 389.847L102.051 382.364L103.921 383.211L100.65 390.642Z" fill="#2935BD"/>
<path fill-rule="evenodd" clip-rule="evenodd" d="M314.521 502.391C314.521 502.391 310.234 499.605 309.612 496.334C309.326 494.512 310.6 493.065 312.512 492.669C314.279 492.338 316.283 492.732 316.741 494.878C317.57 499.193 314.519 502.366 314.519 502.366L314.521 502.391ZM300.118 483.54C300.118 483.54 295.775 480.708 295.209 477.482C294.868 475.615 296.141 474.168 298.109 473.818C299.834 473.453 301.88 473.88 302.338 476.027C303.166 480.342 300.115 483.515 300.115 483.515L300.118 483.54ZM310.151 481.347C310.151 481.347 305.819 478.616 305.242 475.29C304.911 473.523 306.13 472.031 308.142 471.625C309.909 471.294 311.913 471.688 312.326 473.889C313.155 478.204 310.137 481.336 310.137 481.336L310.151 481.347ZM320.139 479.21C320.139 479.21 315.852 476.423 315.285 473.197C314.945 471.331 316.218 469.884 318.185 469.533C319.911 469.168 321.956 469.595 322.359 471.697C323.188 476.012 320.137 479.185 320.137 479.185L320.139 479.21ZM317.363 490.873C317.363 490.873 313.02 488.042 312.454 484.816C312.113 482.949 313.386 481.502 315.399 481.096C317.124 480.731 319.125 481.214 319.583 483.36C320.411 487.675 317.36 490.848 317.36 490.848L317.363 490.873ZM307.085 493.027C307.085 493.027 302.798 490.241 302.231 487.015C301.89 485.148 303.164 483.701 305.121 483.25C306.887 482.919 308.888 483.401 309.305 485.514C310.133 489.829 307.082 493.002 307.082 493.002L307.085 493.027Z" fill="#3059EB"/>
<path fill-rule="evenodd" clip-rule="evenodd" d="M308.825 472.113L306.854 472.553L305.123 464.577L307.135 464.171L308.825 472.113Z" fill="#2935BD"/>
<path fill-rule="evenodd" clip-rule="evenodd" d="M438.334 409.667C444.961 421.72 459.284 422.881 471.337 421.225C473.502 404.593 463.954 388.522 452.592 387.57C441.687 386.669 432.451 398.971 438.321 409.68L438.334 409.667Z" fill="#5163A2"/>
<path fill-rule="evenodd" clip-rule="evenodd" d="M119.593 413.16C110.905 418.142 110.068 428.912 111.262 437.975C123.25 439.603 134.834 432.423 135.521 423.88C136.169 415.68 127.303 408.736 119.583 413.15L119.593 413.16Z" fill="#5163A2"/>
<path fill-rule="evenodd" clip-rule="evenodd" d="M254.105 27.6286C256.713 15.3666 247.517 6.02663 238.229 0C226.828 10.2009 223.815 26.9763 231.094 34.3596C238.073 41.495 251.848 38.5339 254.105 27.6286Z" fill="#5163A2"/>
<path fill-rule="evenodd" clip-rule="evenodd" d="M254.509 22.0063C254.457 21.2497 254.352 20.454 254.209 19.6974L242.247 34.0726L241.947 31.1115L241.543 26.3893L252.043 13.723C251.743 13.2142 251.443 12.6664 251.091 12.1707L241.295 23.9239L240.486 15.0274L247.073 7.08324C246.669 6.67886 246.265 6.27448 245.821 5.88314L240.238 12.562L239.181 0.600054C238.829 0.404384 238.529 0.19567 238.229 0C237.981 0.247848 237.681 0.508741 237.42 0.75659L238.425 11.8054L232.398 6.78322L231.498 8.2964L238.686 14.2708L239.586 24.1196L228.537 14.9231C228.341 15.5231 228.133 16.1232 227.989 16.7363L239.795 26.585L240.251 31.255L240.499 34.2683L227.18 23.1673C227.128 23.9761 227.18 24.7718 227.285 25.5284L234.772 31.7637L240.747 36.7337L240.903 38.2469L241.503 44.8736L243.212 44.717L242.612 38.1295L242.456 36.525L247.426 30.6027L254.509 22.0063Z" fill="#2935BD"/>
<path fill-rule="evenodd" clip-rule="evenodd" d="M76.7002 135.456C67.4538 126.991 54.7406 130.182 44.8371 135.132C47.8494 150.131 60.7812 161.234 70.8356 158.703C80.5242 156.305 84.9559 142.93 76.7002 135.456Z" fill="#3059EB"/>
<path fill-rule="evenodd" clip-rule="evenodd" d="M72.0591 132.257C71.3805 131.918 70.6417 131.605 69.9168 131.345L76.2427 148.944L73.5383 147.701L69.263 145.655L63.6693 130.182C63.0787 130.183 62.4543 130.164 61.8485 130.216L67.0123 144.619L58.934 140.806L55.4264 131.1C54.8728 131.243 54.3192 131.387 53.7571 131.571L56.6832 139.769L45.837 134.615C45.4898 134.82 45.1577 134.973 44.837 135.132C44.9249 135.471 44.9977 135.862 45.0791 136.213L55.1118 140.949L47.7275 143.597L48.5754 145.14L57.3692 141.974L66.3146 146.191L52.7859 151.052C53.204 151.525 53.6154 152.009 54.0711 152.444L68.5455 147.261L72.8022 149.235L75.5252 150.55L59.2042 156.401C59.8749 156.856 60.5872 157.215 61.2922 157.508L70.463 154.216L77.7759 151.586L79.1596 152.218L85.1756 155.061L85.9071 153.508L79.9247 150.686L78.4624 150.007L75.8775 142.721L72.0591 132.257Z" fill="#2935BD"/>
<path fill-rule="evenodd" clip-rule="evenodd" d="M468.227 133.962C475.338 130.089 476.056 121.652 475.109 114.563C465.314 113.257 455.818 118.828 455.255 125.502C454.687 131.924 461.928 137.438 468.227 133.962Z" fill="#5163A2"/>
<path fill-rule="evenodd" clip-rule="evenodd" d="M471.155 131.798C471.504 131.454 471.85 131.068 472.161 130.68L460.082 130.853L461.409 129.461L463.556 127.279L474.182 127.107C474.306 126.746 474.448 126.369 474.544 125.988L464.661 126.121L468.685 121.986L475.351 121.879C475.379 121.51 475.408 121.142 475.413 120.76L469.791 120.828L475.215 115.283C475.163 115.028 475.139 114.793 475.109 114.563C474.883 114.546 474.629 114.508 474.398 114.485L469.4 119.62L469.331 114.553L468.211 114.748L468.3 120.784L463.847 125.365L463.715 116.08C463.339 116.236 462.957 116.386 462.596 116.573L462.725 126.503L460.626 128.69L459.252 130.078L459.101 118.879C458.682 119.193 458.314 119.553 457.986 119.922L458.074 126.216L458.146 131.235L457.47 131.948L454.471 135.027L455.266 135.8L458.246 132.737L458.967 131.986L463.961 131.935L471.155 131.798Z" fill="#2935BD"/>
<path fill-rule="evenodd" clip-rule="evenodd" d="M442.013 414.585C442.665 415.237 443.317 415.785 443.969 416.294L443.617 395.801L445.978 398.057L449.696 401.671L450.048 419.712C450.648 419.907 451.3 420.168 451.953 420.364L451.653 403.588L458.684 410.372L458.931 421.681C459.531 421.734 460.184 421.786 460.836 421.786L460.64 412.237L470.137 421.381L471.337 421.225L471.493 420.025L462.701 411.585L471.298 411.428C471.246 410.776 471.141 410.176 470.998 409.524L460.745 409.719L452.957 402.18L468.728 401.88C468.428 401.227 468.128 400.627 467.828 399.975L451 400.275L447.283 396.714L444.869 394.405L463.967 394.053C463.367 393.4 462.767 392.748 462.153 392.187L451.496 392.344L442.952 392.54L441.752 391.339L436.521 386.317L435.164 387.674L440.395 392.696L441.647 393.948L441.804 402.388L441.999 414.598L442.013 414.585Z" fill="#2935BD"/>
<path fill-rule="evenodd" clip-rule="evenodd" d="M116.023 416.068C115.553 416.558 115.157 417.048 114.791 417.537L129.568 417.273L127.941 419.046L125.335 421.838L112.326 422.102C112.185 422.553 111.997 423.043 111.856 423.532L123.953 423.307L119.061 428.587L110.906 428.773C110.868 429.224 110.83 429.714 110.83 430.203L117.716 430.056L111.122 437.188L111.235 438.089L112.1 438.207L118.186 431.604L118.299 438.06C118.77 438.02 119.202 437.942 119.673 437.834L119.531 430.135L124.968 424.287L125.185 436.13C125.655 435.905 126.088 435.679 126.558 435.454L126.342 422.817L128.91 420.026L130.575 418.213L130.829 432.554C131.299 432.104 131.769 431.653 132.174 431.193L132.061 423.19L131.92 416.773L132.785 415.872L136.407 411.944L135.428 410.925L131.807 414.853L130.904 415.794L124.818 415.911L116.013 416.058L116.023 416.068Z" fill="#2935BD"/>
<path fill-rule="evenodd" clip-rule="evenodd" d="M490.082 287.882L489.391 290.296L483.912 288.73L484.617 286.33L490.082 287.882Z" fill="#2935BD"/>
<path fill-rule="evenodd" clip-rule="evenodd" d="M488.387 299.14C490.095 302.205 496.826 304.619 501.001 305.166C505.175 305.714 510.445 303.158 512.858 300.549C515.272 297.94 516.067 294.47 515.272 290.504C514.424 286.487 509.088 281.817 504.875 280.303C500.701 278.79 495.379 278.999 492.822 280.903C490.056 283.017 486.495 295.774 488.4 299.14H488.387Z" fill="#5163A2"/>
<path d="M506.714 287.282C507.314 287.282 507.771 287.83 507.771 288.443C507.719 289.043 507.223 289.5 506.61 289.5C506.558 289.5 506.258 289.604 505.905 290.009C505.658 290.256 505.449 290.609 505.305 291.117C505.005 292.37 506.114 293.283 506.114 293.283C506.571 293.635 506.662 294.339 506.271 294.796C506.075 295.044 505.814 295.2 505.514 295.253C505.514 295.253 504.001 295.357 503.701 296.557C503.349 297.914 504.549 299.022 504.549 299.022C504.953 299.427 505.005 300.131 504.601 300.575C504.144 301.031 503.44 301.031 502.996 300.627C502.996 300.627 500.883 298.67 501.535 296.061C501.888 294.705 502.736 293.948 503.544 293.544C503.192 292.787 502.892 291.783 503.192 290.583C503.388 289.682 503.844 288.978 504.301 288.469C505.201 287.569 506.414 287.308 506.714 287.308V287.282ZM499.683 282.364C500.283 282.208 500.883 282.56 501.04 283.173C501.196 283.721 500.844 284.334 500.283 284.53C500.283 284.53 499.083 284.778 498.679 286.291C498.274 287.752 499.279 288.652 499.279 288.652C499.683 289.108 499.735 289.813 499.279 290.204C499.122 290.4 498.874 290.504 498.679 290.556C498.431 290.609 497.57 290.961 497.126 292.109C496.67 293.218 497.831 293.922 497.831 293.922C498.339 294.274 498.483 294.979 498.183 295.474C497.987 295.722 497.726 295.931 497.426 295.983C497.178 296.035 495.913 296.44 495.613 297.692C495.313 298.892 496.161 299.401 496.213 299.401C496.722 299.649 496.97 300.301 496.67 300.862C496.422 301.41 495.717 301.618 495.157 301.37C495.157 301.37 492.743 300.118 493.448 297.196C493.8 295.84 494.609 295.031 495.352 294.535C494.844 293.778 494.504 292.67 495.052 291.326C495.509 290.165 496.213 289.461 496.865 289.017C496.461 288.208 496.161 287.06 496.513 285.704C497.27 282.938 499.683 282.39 499.683 282.39V282.364Z" fill="#2935BD"/>
<path fill-rule="evenodd" clip-rule="evenodd" d="M249.403 464.29L246.893 464.247L246.987 458.55L249.488 458.609L249.403 464.29Z" fill="#2935BD"/>
<path fill-rule="evenodd" clip-rule="evenodd" d="M238.09 465.566C235.572 468.01 234.983 475.136 235.534 479.31C236.085 483.484 239.919 487.913 243.063 489.569C246.208 491.224 249.766 491.095 253.39 489.3C257.052 487.441 260.182 481.079 260.553 476.617C260.934 472.194 259.355 467.107 256.853 465.13C254.096 463.006 240.852 462.868 238.094 465.579L238.09 465.566Z" fill="#5163A2"/>
<path d="M254.288 480.2C254.443 480.78 254.032 481.363 253.44 481.521C252.847 481.626 252.277 481.265 252.119 480.673C252.105 480.623 251.927 480.36 251.445 480.125C251.141 479.949 250.747 479.839 250.218 479.832C248.931 479.866 248.336 481.174 248.336 481.174C248.114 481.706 247.457 481.976 246.915 481.716C246.625 481.592 246.406 481.38 246.278 481.104C246.278 481.104 245.786 479.669 244.549 479.69C243.147 479.701 242.387 481.147 242.387 481.147C242.101 481.642 241.434 481.875 240.901 481.599C240.342 481.276 240.16 480.596 240.435 480.063C240.435 480.063 241.778 477.515 244.467 477.47C245.869 477.459 246.819 478.082 247.419 478.759C248.059 478.223 248.951 477.673 250.188 477.652C251.108 477.608 251.907 477.867 252.516 478.176C253.619 478.813 254.185 479.917 254.262 480.207L254.288 480.2ZM257.218 472.136C257.525 472.675 257.34 473.346 256.788 473.656C256.299 473.949 255.616 473.767 255.282 473.276C255.282 473.276 254.732 472.181 253.165 472.182C251.65 472.169 251.04 473.373 251.04 473.373C250.704 473.881 250.037 474.114 249.541 473.774C249.311 473.674 249.146 473.461 249.045 473.286C248.931 473.06 248.368 472.32 247.144 472.188C245.955 472.034 245.575 473.338 245.575 473.338C245.366 473.92 244.723 474.241 244.167 474.08C243.877 473.955 243.607 473.757 243.479 473.481C243.365 473.255 242.647 472.137 241.359 472.172C240.123 472.192 239.851 473.143 239.864 473.194C239.756 473.749 239.191 474.157 238.571 474.013C237.978 473.915 237.594 473.289 237.688 472.683C237.688 472.683 238.273 470.028 241.278 469.952C242.679 469.941 243.67 470.513 244.341 471.103C244.94 470.415 245.924 469.801 247.363 469.982C248.603 470.123 249.466 470.621 250.063 471.136C250.739 470.536 251.77 469.949 253.172 469.938C256.039 469.953 257.193 472.143 257.193 472.143L257.218 472.136Z" fill="#2935BD"/>
<path fill-rule="evenodd" clip-rule="evenodd" d="M58.4262 209.235L59.9077 207.209L64.51 210.568L63.0207 212.578L58.4262 209.235Z" fill="#2935BD"/>
<path fill-rule="evenodd" clip-rule="evenodd" d="M63.9015 199.254C63.3552 195.787 57.87 191.2 54.1411 189.246C50.4121 187.291 44.5835 187.873 41.4183 189.489C38.2532 191.105 36.3092 194.087 35.6879 198.084C35.0976 202.148 38.4941 208.372 41.9267 211.245C45.3227 214.106 50.3901 215.746 53.4469 214.841C56.7717 213.811 64.5157 203.066 63.8893 199.25L63.9015 199.254Z" fill="#3059EB"/>
<path d="M42.6086 204.061C42.0454 203.854 41.8059 203.182 42.0174 202.606C42.2734 202.061 42.8962 201.804 43.4716 202.015C43.5206 202.033 43.8382 202.039 44.3083 201.781C44.6264 201.634 44.9439 201.375 45.2541 200.947C45.9677 199.875 45.242 198.635 45.242 198.635C44.935 198.147 45.0923 197.455 45.6172 197.161C45.8863 196.996 46.1852 196.939 46.4848 196.994C46.4848 196.994 47.9411 197.418 48.6367 196.395C49.4354 195.243 48.6915 193.788 48.6915 193.788C48.4515 193.269 48.6455 192.59 49.1781 192.313C49.7641 192.042 50.4253 192.285 50.7021 192.818C50.7021 192.818 52.0105 195.384 50.4982 197.607C49.6995 198.759 48.6427 199.177 47.744 199.277C47.8136 200.109 47.7487 201.155 47.053 202.178C46.5588 202.955 45.8873 203.459 45.2832 203.779C44.1279 204.313 42.8992 204.14 42.6176 204.036L42.6086 204.061ZM47.5113 211.102C46.8941 211.042 46.4524 210.505 46.517 209.875C46.5591 209.307 47.1011 208.853 47.6951 208.863C47.6951 208.863 48.9071 209.044 49.8087 207.763C50.6923 206.532 50.0601 205.34 50.0601 205.34C49.838 204.772 50.0321 204.093 50.5956 203.883C50.8101 203.754 51.0787 203.741 51.2803 203.76C51.531 203.796 52.4606 203.763 53.2729 202.838C54.084 201.955 53.2373 200.893 53.2373 200.893C52.8813 200.387 52.9897 199.677 53.4423 199.315C53.7115 199.15 54.0283 199.044 54.3279 199.098C54.5786 199.135 55.9057 199.192 56.6194 198.12C57.315 197.097 56.6947 196.327 56.6457 196.309C56.2537 195.901 56.2461 195.203 56.7213 194.78C57.1429 194.352 57.8761 194.399 58.3171 194.825C58.3171 194.825 60.1501 196.833 58.4808 199.332C57.6822 200.484 56.644 200.964 55.7751 201.173C55.9916 202.059 55.9274 203.216 54.9496 204.288C54.1205 205.221 53.2163 205.639 52.4511 205.83C52.5517 206.729 52.4373 207.91 51.6386 209.061C49.9744 211.396 47.5203 211.078 47.5203 211.078L47.5113 211.102Z" fill="#2935BD"/>
<path fill-rule="evenodd" clip-rule="evenodd" d="M105.135 65.0667C100.66 55.4659 102.265 52.9091 104.235 51.3046C107.052 48.9957 112.127 50.8481 112.831 52.9613C112.831 52.9613 106.243 35.4293 114.24 31.9072C122.275 28.3461 132.124 41.4037 132.124 41.4037C132.124 41.4037 133.429 37.686 136.298 37.9339C139.116 38.2339 140.173 39.5384 140.173 39.5384C140.173 39.5384 145.547 35.064 147.765 35.5206C149.969 35.9772 150.778 37.0338 150.778 37.0338L105.161 65.0667H105.135Z" fill="#6874FF"/>
<path fill-rule="evenodd" clip-rule="evenodd" d="M436.834 61.8447C445.222 55.4137 448.092 56.4703 450.048 58.0226C452.918 60.2794 452.214 65.6146 450.296 66.7626C450.296 66.7626 466.028 56.5616 471.194 63.6449C476.372 70.676 465.715 83.0945 465.715 83.0945C465.715 83.0945 469.628 83.6032 469.98 86.46C470.333 89.2776 469.276 90.5821 469.276 90.5821C469.276 90.5821 474.807 94.8477 474.859 97.1174C474.859 99.3742 474.011 100.431 474.011 100.431L436.834 61.8447Z" fill="#6874FF"/>
<path fill-rule="evenodd" clip-rule="evenodd" d="M33.8457 327.668L15.9093 263.515C15.9093 263.515 12.1394 264.167 12.1916 268.133C12.1916 272.098 14.957 272.659 14.957 272.659C14.957 272.659 7.62594 273.964 7.62594 279.442C7.62594 284.921 14.2526 284.569 14.2526 284.569C14.2526 284.569 2.14719 285.078 0.229624 296.974C-1.63576 308.884 8.31731 315.563 13.6917 316.02C19.0139 316.476 23.0838 315.12 23.0838 315.12C23.0838 315.12 19.4183 328.882 33.8326 327.682L33.8457 327.668Z" fill="#2935BD"/>
<path fill-rule="evenodd" clip-rule="evenodd" d="M208.187 490.557L147.595 462.876C147.595 462.876 145.69 466.19 148.704 468.707C151.769 471.225 153.974 469.516 153.974 469.516C153.974 469.516 150.204 475.947 154.43 479.508C158.605 483.069 162.622 477.695 162.622 477.695C162.622 477.695 155.135 487.296 163.027 496.44C170.971 505.584 182.476 502.271 186.285 498.449C190.055 494.679 191.66 490.714 191.66 490.714C191.66 490.714 199.8 502.415 208.187 490.557Z" fill="#2935BD"/>
<path fill-rule="evenodd" clip-rule="evenodd" d="M430.703 447.249L386.795 475.634C386.795 475.634 388.151 478.295 391.112 477.343C394.074 476.39 393.826 474.173 393.826 474.173C393.826 474.173 396.539 479.404 400.661 478.138C404.783 476.834 402.918 471.955 402.918 471.955C402.918 471.955 406.127 480.943 415.48 479.586C424.872 478.178 427.533 469.19 426.633 465.068C425.733 460.946 423.763 458.232 423.763 458.232C423.763 458.232 434.969 457.776 430.703 447.236V447.249Z" fill="#6874FF"/>
<path fill-rule="evenodd" clip-rule="evenodd" d="M498.927 361.037C509.18 363.554 511.384 361.441 512.597 359.224C514.306 356.015 511.489 351.436 509.284 351.136C509.284 351.136 527.768 354.149 529.686 345.605C531.59 337.061 516.876 329.925 516.876 329.925C516.876 329.925 520.294 327.916 519.433 325.203C518.585 322.438 517.124 321.681 517.124 321.681C517.124 321.681 520.437 315.55 519.589 313.437C518.741 311.376 517.528 310.776 517.528 310.776L498.94 361.011L498.927 361.037Z" fill="#2935BD"/>
</svg>
