<svg width="52" height="52" viewBox="0 0 52 52" fill="none" xmlns="http://www.w3.org/2000/svg">
<path d="M19.375 11.625V19.375H11.625V11.625H19.375ZM23.25 7.75H7.75V23.25H23.25V7.75ZM19.375 32.2917V40.0417H11.625V32.2917H19.375ZM23.25 28.4167H7.75V43.9167H23.25V28.4167ZM40.0417 11.625V19.375H32.2917V11.625H40.0417ZM43.9167 7.75H28.4167V23.25H43.9167V7.75ZM28.4167 28.4167H32.2917V32.2917H28.4167V28.4167ZM32.2917 32.2917H36.1667V36.1667H32.2917V32.2917ZM36.1667 28.4167H40.0417V32.2917H36.1667V28.4167ZM28.4167 36.1667H32.2917V40.0417H28.4167V36.1667ZM32.2917 40.0417H36.1667V43.9167H32.2917V40.0417ZM36.1667 36.1667H40.0417V40.0417H36.1667V36.1667ZM40.0417 32.2917H43.9167V36.1667H40.0417V32.2917ZM40.0417 40.0417H43.9167V43.9167H40.0417V40.0417ZM51.6667 12.9167H46.5V5.16667H38.75V0H51.6667V12.9167ZM51.6667 51.6667V38.75H46.5V46.5H38.75V51.6667H51.6667ZM0 51.6667H12.9167V46.5H5.16667V38.75H0V51.6667ZM0 0V12.9167H5.16667V5.16667H12.9167V0H0Z" fill="url(#paint0_linear_146_678)"/>
<defs>
<linearGradient id="paint0_linear_146_678" x1="9" y1="-1.49012e-07" x2="43" y2="52" gradientUnits="userSpaceOnUse">
<stop stop-color="#A2DBFF"/>
<stop offset="1" stop-color="#1FA7FE"/>
</linearGradient>
</defs>
</svg>
